<svg width="20" height="14" viewBox="0 0 20 14" fill="none" xmlns="http://www.w3.org/2000/svg">
<path d="M15.1875 8.24818H1.25C0.895833 8.24818 0.598958 8.12839 0.359375 7.88881C0.119792 7.64923 0 7.35235 0 6.99818C0 6.64402 0.119792 6.34714 0.359375 6.10756C0.598958 5.86798 0.895833 5.74818 1.25 5.74818H15.1875L11.625 2.18568C11.375 1.93568 11.2552 1.64402 11.2656 1.31068C11.276 0.97735 11.3958 0.685684 11.625 0.435684C11.875 0.185684 12.1719 0.0554753 12.5156 0.0450586C12.8594 0.0346419 13.1562 0.154434 13.4062 0.404434L19.125 6.12318C19.25 6.24818 19.3385 6.3836 19.3906 6.52943C19.4427 6.67527 19.4687 6.83152 19.4687 6.99818C19.4687 7.16485 19.4427 7.3211 19.3906 7.46693C19.3385 7.61277 19.25 7.74818 19.125 7.87318L13.4062 13.5919C13.1562 13.8419 12.8594 13.9617 12.5156 13.9513C12.1719 13.9409 11.875 13.8107 11.625 13.5607C11.3958 13.3107 11.276 13.019 11.2656 12.6857C11.2552 12.3524 11.375 12.0607 11.625 11.8107L15.1875 8.24818Z" fill="#333333"/>
</svg>
