<svg width="174" height="174" viewBox="0 0 174 174" fill="none" xmlns="http://www.w3.org/2000/svg">
<path d="M87 166.631C130.978 166.631 166.63 130.979 166.63 87.0008C166.63 43.0224 130.978 7.37097 87 7.37097C43.0217 7.37097 7.37018 43.0224 7.37018 87.0008C7.37018 130.979 43.0217 166.631 87 166.631Z" fill="#A8A09D"/>
<path d="M87 173C134.496 173 173 134.496 173 87C173 39.5035 134.496 1 87 1C39.5035 1 1 39.5035 1 87C1 134.496 39.5035 173 87 173Z" stroke="#A8A09D" stroke-width="2" stroke-miterlimit="10"/>
<mask id="mask0_1_1715" style="mask-type:luminance" maskUnits="userSpaceOnUse" x="7" y="7" width="160" height="160">
<path d="M87 166.631C130.978 166.631 166.63 130.979 166.63 87.0008C166.63 43.0224 130.978 7.37097 87 7.37097C43.0217 7.37097 7.37018 43.0224 7.37018 87.0008C7.37018 130.979 43.0217 166.631 87 166.631Z" fill="white"/>
</mask>
<g mask="url(#mask0_1_1715)">
<path d="M117.567 76.1752C117.567 93.494 106.553 114.163 86.209 114.163C65.8648 114.163 54.8508 93.494 54.8508 76.1752C54.8508 58.8564 68.8902 44.817 86.209 44.817C103.528 44.817 117.567 58.8564 117.567 76.1752Z" fill="#EBA08C"/>
<path d="M58.3439 77.9768C59.9334 75.7363 60.7532 73.0357 61.2362 70.3312C61.7701 67.3401 61.8804 64.0941 60.4118 61.4346C59.9593 60.6155 59.3409 59.8542 58.5074 59.4275C57.0342 58.6746 55.1542 59.1499 53.8963 60.2238C52.6376 61.2977 51.9022 62.8605 51.385 64.4326C49.8701 69.0399 49.972 74.0076 50.8314 78.7328C51.2413 80.9878 51.1561 82.6876 53.7678 81.6814C55.6166 80.9673 57.2054 79.5816 58.3439 77.9768Z" fill="#000035"/>
<path d="M115.387 77.9768C113.797 75.7363 112.977 73.0357 112.494 70.3312C111.961 67.3401 111.85 64.0941 113.319 61.4346C113.771 60.6155 114.39 59.8542 115.223 59.4275C116.696 58.6746 118.576 59.1499 119.834 60.2238C121.093 61.2977 121.828 62.8605 122.346 64.4326C123.861 69.0399 123.759 74.0076 122.899 78.7328C122.489 80.9878 122.574 82.6876 119.963 81.6814C118.113 80.9673 116.524 79.5816 115.387 77.9768Z" fill="#000035"/>
<path d="M77.9899 74.3856C77.9899 75.9249 76.7426 77.1722 75.2033 77.1722C73.664 77.1722 72.4167 75.9241 72.4167 74.3856C72.4167 72.8463 73.6647 71.599 75.2033 71.599C76.7418 71.599 77.9899 72.847 77.9899 74.3856Z" fill="#000035"/>
<path d="M65.7393 72.6626C66.261 71.2267 67.0976 69.8981 68.0909 68.6812C69.1047 67.4796 70.3238 66.4308 71.6874 65.5859C72.0319 65.3821 72.3772 65.1752 72.7202 64.9554L73.7941 64.369C74.1675 64.2055 74.5501 64.0572 74.9387 63.9302C75.3357 63.8313 75.7403 63.7599 76.1457 63.7081C77.7755 63.575 79.4821 63.8245 80.8982 64.8041L80.8655 65.0969C79.3186 65.7471 78.0128 66.1494 76.7199 66.5982C76.4004 66.7183 76.0795 66.8172 75.7517 66.8902C75.4292 66.986 75.1007 67.0598 74.7638 67.1199L73.7568 67.3496C73.4268 67.4492 73.0997 67.5625 72.7712 67.6781C71.4889 68.2044 70.2508 68.8957 69.1047 69.7483C67.938 70.5841 66.9128 71.6283 65.9956 72.8048L65.7393 72.6626Z" fill="#000035"/>
<path d="M99.1836 77.1722C100.723 77.1722 101.97 75.9246 101.97 74.3856C101.97 72.8466 100.723 71.599 99.1836 71.599C97.6446 71.599 96.397 72.8466 96.397 74.3856C96.397 75.9246 97.6446 77.1722 99.1836 77.1722Z" fill="#000035"/>
<path d="M108.39 72.8048C107.473 71.6291 106.448 70.5849 105.281 69.7483C104.135 68.8957 102.897 68.2044 101.614 67.6781C101.286 67.5625 100.958 67.4492 100.629 67.3496L99.6217 67.1199C99.2848 67.0598 98.9555 66.986 98.6338 66.8902C98.306 66.8164 97.9858 66.7176 97.6657 66.5982C96.372 66.1494 95.0669 65.7471 93.52 65.0969L93.4873 64.8041C94.9042 63.8245 96.6108 63.575 98.2399 63.7081C98.6452 63.7599 99.0498 63.8313 99.4468 63.9302C99.8355 64.0572 100.218 64.2055 100.591 64.369L101.666 64.9554C102.009 65.1752 102.355 65.3821 102.699 65.5859C104.062 66.4308 105.282 67.4796 106.295 68.6812C107.289 69.8981 108.124 71.2275 108.647 72.6626L108.39 72.8048Z" fill="#000035"/>
<path d="M77.6408 93.661C79.133 95.0421 80.7628 96.2384 82.5204 97.126C83.4003 97.5633 84.3076 97.9382 85.2507 98.1474C85.7154 98.282 86.193 98.3307 86.6653 98.4082C87.1414 98.4212 87.6228 98.4835 88.0852 98.4158C89.0221 98.3839 89.9469 98.1048 90.8254 97.7207C91.7213 97.364 92.5449 96.8225 93.3518 96.2605C94.9535 95.1045 96.3917 93.6846 97.7287 92.1521C96.7666 93.9508 95.4699 95.5897 93.885 96.9389C92.3168 98.2767 90.3584 99.3756 88.1605 99.5178C87.0744 99.5969 86.0036 99.4517 84.9822 99.1566C83.96 98.8653 82.9881 98.4341 82.1044 97.8781C80.3232 96.7913 78.7923 95.3471 77.6408 93.661Z" fill="#000035"/>
<path d="M88.4768 137.192C96.5004 137.192 101.416 130.981 103.864 126.665C100.813 125.106 98.5858 123.44 97.8937 121.568C95.2798 114.495 96.3255 106.499 96.3255 106.499L87.6676 107.096L78.3929 106.499C78.3929 106.499 80.0555 114.495 77.4415 121.568C76.7061 123.56 74.2404 125.319 70.8857 126.963C73.7104 130.749 79.7915 137.192 88.4768 137.192Z" fill="#EBA08C"/>
<path d="M133.57 139.253C128.005 135.08 115.833 131.869 107.206 128.211C104.2 133.514 98.1599 141.151 88.2981 141.151C77.7571 141.151 70.3389 133.426 66.8146 128.755C58.3058 132.191 47.053 135.288 41.7658 139.253C33.1543 145.711 29.1562 173.084 29.1562 173.084H87.4371H87.8988H146.18C146.18 173.084 142.181 145.711 133.57 139.253Z" fill="#2847FB"/>
<path d="M88.2981 141.151C98.1599 141.151 104.2 133.514 107.206 128.211C106.015 127.705 104.894 127.191 103.864 126.665C101.416 130.981 96.5004 137.192 88.4768 137.192C79.7916 137.192 73.7112 130.749 70.8858 126.963C69.6385 127.574 68.2642 128.169 66.8139 128.754C70.339 133.426 77.7572 141.151 88.2981 141.151Z" fill="#071882"/>
<path d="M71.1801 109.744C73.8792 111.008 76.6894 111.92 79.5345 112.58C82.3835 113.198 85.2986 113.556 88.1772 113.466C91.0376 113.377 93.869 112.649 96.5613 111.554C99.2513 110.44 101.829 108.988 104.241 107.241C102.227 109.452 99.7426 111.241 97.0343 112.599C95.6821 113.288 94.2462 113.816 92.7754 114.236C91.2969 114.628 89.7705 114.875 88.2304 114.939C85.167 115.007 82.1386 114.563 79.2417 113.692C76.3601 112.8 73.5758 111.542 71.1801 109.744Z" fill="#000035"/>
<path opacity="0.2" d="M103.713 91.3632C107.371 91.3632 110.336 89.1138 110.336 86.3391C110.336 83.5644 107.371 81.3151 103.713 81.3151C100.056 81.3151 97.0906 83.5644 97.0906 86.3391C97.0906 89.1138 100.056 91.3632 103.713 91.3632Z" fill="#EBA08C"/>
<path opacity="0.2" d="M71.5885 91.3632C75.2461 91.3632 78.2112 89.1138 78.2112 86.3391C78.2112 83.5644 75.2461 81.3151 71.5885 81.3151C67.9309 81.3151 64.9658 83.5644 64.9658 86.3391C64.9658 89.1138 67.9309 91.3632 71.5885 91.3632Z" fill="#EBA08C"/>
<path d="M86.8098 70.4143C87.219 73.3789 87.454 76.354 88.2518 79.1574C88.6572 80.5491 89.1728 81.9082 89.8953 83.1463C90.598 84.3929 91.5008 85.5177 92.5853 86.4334L92.9154 86.7117L92.7062 87.0578C91.9571 88.2974 90.995 89.3827 89.9204 90.3083C88.8473 91.2376 87.6563 92.0149 86.39 92.6119C87.5004 91.7609 88.5416 90.8467 89.4747 89.8459C90.4026 88.8404 91.2239 87.7514 91.8597 86.5741L91.9799 87.1985C90.7243 86.263 89.7188 85.0294 88.9408 83.6954C88.1795 82.3478 87.6205 80.899 87.2829 79.4076C86.9315 77.9215 86.771 76.4088 86.7148 74.9068C86.6539 73.4032 86.7071 71.908 86.8098 70.4143Z" fill="#000035"/>
<path d="M122.575 74.098C125.745 71.0414 128.384 46.3523 127.011 42.212C126.549 43.7711 125.49 45.8154 124.242 46.887C124.923 45.0107 125.445 43.06 125.524 41.0704C125.689 36.9058 124.608 32.6506 122.877 28.8419C119.405 31.4079 115.019 32.643 110.668 32.7616C106.317 32.8803 101.89 32.6977 97.8025 31.236C99.03 29.9598 99.9799 28.2608 100.572 26.6074C96.5819 27.7391 92.3663 27.8182 88.2115 27.8068C84.0559 27.7954 79.8616 27.7064 75.7905 28.5217C71.7194 29.337 67.6247 31.7129 65.0305 34.8866C65.3134 32.7806 66.0443 29.8633 66.0359 27.7399C64.2525 30.1127 61.3009 31.4048 59.3707 33.6659C57.7827 35.5262 56.9811 38.0085 57.1895 40.4225C56.7301 39.8498 55.457 39.6186 54.7124 39.6049C53.9678 39.5912 53.2393 39.7973 52.5297 40.0163C50.153 40.7495 47.8319 41.653 45.5898 42.7162C47.771 44.2358 50.6535 45.1552 53.2879 44.6822C50.0496 47.0801 47.4539 51.1467 47.1558 55.1068C46.8569 59.0676 47.9566 71.9426 50.8002 74.7794C54.288 74.6874 58.2724 64.6347 60.9115 62.4041C63.5505 60.1734 65.369 57.0324 65.9652 53.6717C70.158 57.6728 75.63 60.3871 81.4861 60.594C80.6914 57.7663 79.1247 54.9942 76.8948 53.0328C80.3043 55.5091 84.0339 55.6521 88.2784 55.7867C92.5229 55.9213 96.8808 55.7608 100.886 57.1404C105.376 58.6873 112.384 63.9525 115.505 67.4662" fill="#000035"/>
<path d="M125.897 81.4486C125.476 83.6853 124.242 85.7547 122.673 87.3047C121.606 88.3573 120.36 89.2037 119.027 89.5627C117.694 89.9217 116.273 89.7589 115.215 88.9459C114.247 88.2021 113.642 86.9723 113.347 85.6566C112.667 82.619 113.587 79.0925 115.453 76.4504C116.749 74.6152 118.583 73.117 120.556 72.8691C124.533 72.3671 126.642 77.4916 125.897 81.4486Z" fill="#EBA08C"/>
<path d="M114.699 86.1076C115.653 86.0528 116.599 85.7129 117.403 85.1356C117.646 84.9607 117.901 84.7136 117.889 84.4048C117.883 84.2329 117.792 84.0816 117.7 83.9424C117.158 83.1202 116.482 82.4015 115.71 81.8258C116.274 80.5565 116.846 79.2712 117.687 78.1859C118.528 77.1006 119.682 76.2184 120.973 76.0397C122.264 75.8602 123.671 76.5196 124.164 77.7874C124.164 77.7874 125.897 81.4478 121.815 85.4102C117.512 89.5893 114.699 86.1076 114.699 86.1076Z" fill="#EBA08C"/>
<path d="M124.164 77.788C123.674 76.8845 122.734 76.3947 121.82 76.3377C120.904 76.2715 120.022 76.6594 119.296 77.2275C118.563 77.8032 117.977 78.5546 117.484 79.3821C116.996 80.2141 116.572 81.107 116.153 82.0226L116 81.437C116.502 81.8348 116.959 82.2858 117.358 82.7794C117.553 83.0296 117.736 83.2897 117.903 83.5574C117.984 83.6935 118.07 83.8137 118.155 84.0107C118.243 84.1978 118.271 84.4898 118.177 84.7065C117.991 85.1408 117.655 85.3127 117.394 85.4716C117.12 85.6329 116.824 85.753 116.527 85.8565C115.931 86.055 115.308 86.1576 114.698 86.1074C115.295 85.9865 115.861 85.7918 116.372 85.5028C116.627 85.3598 116.863 85.1887 117.092 85.0168C117.324 84.845 117.518 84.6434 117.54 84.4959C117.548 84.4252 117.54 84.3955 117.496 84.3111C117.454 84.2335 117.358 84.1103 117.271 83.9955C117.094 83.7673 116.906 83.5483 116.708 83.3406C116.318 82.9201 115.886 82.5398 115.42 82.215L115.108 81.9975L115.267 81.6294C115.666 80.7054 116.063 79.7517 116.619 78.8581C117.162 77.9637 117.865 77.1119 118.77 76.5035C119.656 75.8958 120.806 75.5125 121.906 75.7589C122.976 75.9795 123.929 76.7811 124.164 77.788Z" fill="#000035"/>
<path d="M45.6567 81.4486C46.078 83.6853 47.3116 85.7547 48.8813 87.3047C49.9476 88.3573 51.1941 89.2037 52.5273 89.5627C53.8598 89.9217 55.2812 89.7589 56.3398 88.9459C57.308 88.2021 57.9126 86.9723 58.2077 85.6566C58.8876 82.619 57.9681 79.0925 56.1018 76.4504C54.8059 74.6152 52.9722 73.117 50.9986 72.8691C47.0203 72.3671 44.9121 77.4916 45.6567 81.4486Z" fill="#EBA08C"/>
<path d="M56.8539 86.1076C55.9002 86.0528 54.9541 85.7129 54.1502 85.1356C53.9069 84.9607 53.6521 84.7136 53.6643 84.4048C53.6703 84.2329 53.7616 84.0816 53.8529 83.9424C54.3951 83.1202 55.0712 82.4015 55.8432 81.8258C55.2796 80.5565 54.707 79.2712 53.8666 78.1859C53.0254 77.1006 51.8717 76.2184 50.5811 76.0397C49.2897 75.8602 47.8827 76.5196 47.3899 77.7874C47.3899 77.7874 45.6574 81.4478 49.7384 85.4102C54.0415 89.5893 56.8539 86.1076 56.8539 86.1076Z" fill="#EBA08C"/>
<path d="M47.3892 77.7879C47.6249 76.781 48.5779 75.9794 49.6472 75.7581C50.7461 75.5116 51.8968 75.8949 52.7828 76.5026C53.6886 77.1118 54.3906 77.9636 54.9351 78.858C55.4911 79.7516 55.8881 80.7053 56.2866 81.6293L56.4448 81.9974L56.133 82.215C55.6668 82.5397 55.2356 82.92 54.8454 83.3405C54.6469 83.5482 54.459 83.7672 54.2818 83.9954C54.1951 84.1102 54.0986 84.2334 54.0567 84.311C54.0134 84.3954 54.005 84.4251 54.0126 84.4958C54.0347 84.6441 54.2278 84.8456 54.4606 85.0168C54.6902 85.1886 54.926 85.3597 55.1816 85.5027C55.6919 85.7917 56.2577 85.9857 56.8555 86.1073C56.2455 86.1575 55.6219 86.0549 55.0256 85.8564C54.729 85.7537 54.4332 85.6328 54.1586 85.4715C53.8985 85.3126 53.5624 85.1407 53.3761 84.7065C53.2825 84.4897 53.3107 84.1977 53.3981 84.0106C53.4833 83.8136 53.57 83.6934 53.6506 83.5573C53.8187 83.2896 54.0004 83.0302 54.1959 82.7793C54.5959 82.2857 55.0523 81.8355 55.5542 81.4369L55.4006 82.0225C54.9815 81.1069 54.5579 80.2132 54.0697 79.382C53.5761 78.5545 52.9905 77.8039 52.2581 77.2274C51.5318 76.6593 50.6503 76.2714 49.7339 76.3376C48.819 76.3946 47.8797 76.8836 47.3892 77.7879Z" fill="#000035"/>
<g opacity="0.35">
<path d="M64.6973 38.8315C65.7894 41.1436 67.6778 42.9772 69.8187 44.2922C71.9771 45.6079 74.3705 46.4787 76.8019 47.1791L76.5182 47.5503C75.7265 46.3372 74.7333 45.2466 73.7165 44.1872L70.5876 41.047L71.0614 40.5891C72.5392 42.1049 74.4314 43.178 76.4392 43.8845C78.4523 44.6009 80.5802 44.9591 82.7249 45.1637C84.8712 45.3736 87.0417 45.4649 89.2183 45.6375C91.3942 45.8322 93.5731 46.1015 95.711 46.573C99.9913 47.4773 104.157 49.0052 107.923 51.2381C108.873 51.7803 109.771 52.407 110.669 53.0291L111.957 54.0444C112.387 54.3806 112.776 54.7669 113.187 55.1251C114.789 56.6074 116.23 58.26 117.439 60.0686C114.838 56.58 111.478 53.7166 107.697 51.6297C103.932 49.5018 99.7912 48.1207 95.5733 47.2324C93.4613 46.7821 91.3144 46.5334 89.1628 46.3562C87.006 46.1935 84.8286 46.141 82.6496 45.9121C80.4753 45.6885 78.2842 45.3059 76.2011 44.5477C74.1241 43.8001 72.1414 42.6631 70.5869 41.0454L71.0607 40.5876C72.0844 41.6432 73.143 42.6829 74.15 43.7773C75.1546 44.8717 76.1418 45.9995 76.9419 47.2848L77.2993 47.8583L76.6582 47.656C74.2283 46.8894 71.7961 45.9782 69.656 44.5462C67.5295 43.1323 65.6662 41.2036 64.6973 38.8315Z" fill="white"/>
<path d="M81.734 33.2782C83.8285 34.9978 86.1679 36.3888 88.648 37.4216C91.125 38.465 93.7588 39.0963 96.4176 39.3564L96.2039 39.9587C94.4075 38.7958 92.4522 37.7205 90.925 36.0579L88.6183 33.5474L91.4064 35.5187C92.3305 36.172 93.4393 36.5196 94.5877 36.661C95.7377 36.8101 96.9233 36.7751 98.1136 36.7082C99.303 36.6337 100.512 36.5439 101.728 36.5356C102.943 36.5363 104.156 36.6093 105.361 36.7508C107.767 37.0702 110.127 37.6771 112.382 38.5472C114.626 39.4438 116.763 40.6006 118.698 42.0258C117.676 41.3946 116.629 40.8112 115.556 40.2834C114.475 39.7693 113.366 39.3244 112.243 38.9229C109.992 38.1365 107.653 37.617 105.288 37.3805C104.107 37.2649 102.92 37.1995 101.734 37.2132C100.55 37.2337 99.3639 37.3341 98.1584 37.4231C96.9545 37.5029 95.7293 37.5562 94.4934 37.4102C93.2621 37.2679 92.0194 36.8565 90.9813 36.1081L91.4627 35.5682C92.8659 37.1348 94.7505 38.211 96.5636 39.4081L97.693 40.1534L96.3506 40.0112C93.6211 39.7214 90.96 38.9403 88.4761 37.814C85.9945 36.6778 83.7015 35.14 81.734 33.2782Z" fill="white"/>
<path d="M60.8894 46.1332C60.8841 46.575 60.8727 47.0184 60.8514 47.4626L60.7107 48.7905L60.4544 50.1039L60.1137 51.4006C59.6056 53.1179 58.8291 54.7545 57.8731 56.2726C56.9019 57.7807 55.7467 59.1763 54.4051 60.3627L53.3731 61.2191L52.2909 62.0062L51.1463 62.6937C50.7523 62.9006 50.3553 63.0983 49.9568 63.2892C50.315 63.0261 50.6747 62.7705 51.0375 62.5241L52.0695 61.7058L53.0636 60.851L54.0005 59.9391C55.2105 58.6873 56.3065 57.3312 57.232 55.8634C58.172 54.4047 58.9379 52.8388 59.5623 51.2135C60.1791 49.5837 60.608 47.8801 60.8894 46.1332Z" fill="white"/>
</g>
</g>
</svg>
