<svg width="174" height="174" viewBox="0 0 174 174" fill="none" xmlns="http://www.w3.org/2000/svg">
<path d="M87 166.631C130.978 166.631 166.63 130.979 166.63 87.0007C166.63 43.0224 130.978 7.37091 87 7.37091C43.0217 7.37091 7.37018 43.0224 7.37018 87.0007C7.37018 130.979 43.0217 166.631 87 166.631Z" fill="#A8A09D"/>
<path d="M87 173C134.497 173 173 134.496 173 87C173 39.5035 134.497 1 87 1C39.5035 1 1 39.5035 1 87C1 134.496 39.5035 173 87 173Z" stroke="#A8A09D" stroke-width="2" stroke-miterlimit="10"/>
<mask id="mask0_1_1068" style="mask-type:luminance" maskUnits="userSpaceOnUse" x="7" y="7" width="160" height="160">
<path d="M87 166.631C130.978 166.631 166.63 130.979 166.63 87.0007C166.63 43.0224 130.978 7.37091 87 7.37091C43.0217 7.37091 7.37018 43.0224 7.37018 87.0007C7.37018 130.979 43.0217 166.631 87 166.631Z" fill="white"/>
</mask>
<g mask="url(#mask0_1_1068)">
<path d="M134.576 135.312C134.426 134.831 129.953 96.2885 126.414 65.6612C123.973 44.539 107.095 28.7511 87.2037 28.9778C67.1865 29.2059 50.5652 45.5756 48.6996 66.9001L42.5286 137.441L134.576 135.312Z" fill="#000035"/>
<path d="M134.192 132.504C128.627 128.331 116.454 125.12 107.828 121.462C107.698 121.407 107.579 121.351 107.451 121.295C106.403 120.843 105.403 120.385 104.485 119.916C104.077 119.707 103.687 119.496 103.309 119.284C100.869 117.907 99.1144 116.441 98.5151 114.82C98.4527 114.651 98.3949 114.482 98.3363 114.313C91.7676 115.753 84.8628 115.646 78.342 114.005C78.2538 114.278 78.1625 114.549 78.0629 114.82C77.3898 116.641 75.2611 118.266 72.3384 119.789C72.0654 119.931 71.7939 120.074 71.5071 120.215C70.6979 120.612 69.8302 121.001 68.9282 121.386C68.4399 121.594 67.9448 121.801 67.436 122.006C58.9272 125.443 47.6744 128.539 42.3872 132.505C33.7757 138.963 29.7776 166.335 29.7776 166.335H67.8665H73.5956H88.0578H88.5194H109.898H118.707H146.8C146.801 166.335 142.803 138.962 134.192 132.504Z" fill="#F0C02A"/>
<path d="M98.3364 114.312C95.9521 107.369 96.9469 99.7494 96.9469 99.7494L88.289 100.346L79.0144 99.7494C79.0144 99.7494 80.5499 107.146 78.342 114.004C84.8636 115.646 91.7684 115.752 98.3364 114.312Z" fill="#EBA08C"/>
<path d="M118.188 69.4257C118.188 86.7445 107.174 107.413 86.8303 107.413C66.4861 107.413 55.4721 86.7445 55.4721 69.4257C55.4721 52.1069 69.5115 38.0675 86.8303 38.0675C104.149 38.0683 118.188 52.1076 118.188 69.4257Z" fill="#EBA08C"/>
<path d="M58.9652 71.2273C60.5547 68.9868 61.3745 66.2862 61.8575 63.5817C62.3914 60.5906 62.5017 57.3446 61.0331 54.685C60.5806 53.8659 59.9623 53.1047 59.1287 52.678C57.6556 51.9251 55.7755 52.4004 54.5168 53.4743C53.2582 54.5481 52.5227 56.111 52.0056 57.683C50.4906 62.2903 50.5925 67.2581 51.4519 71.9833C51.8618 74.2383 51.7767 75.9381 54.3883 74.9319C56.2379 74.2177 57.8267 72.8321 58.9652 71.2273Z" fill="#000035"/>
<path d="M116.008 71.2273C114.419 68.9868 113.599 66.2862 113.116 63.5817C112.582 60.5906 112.472 57.3446 113.94 54.685C114.393 53.8659 115.011 53.1047 115.845 52.678C117.318 51.9251 119.198 52.4004 120.456 53.4743C121.715 54.5481 122.451 56.111 122.968 57.683C124.483 62.2903 124.381 67.2581 123.521 71.9833C123.111 74.2383 123.197 75.9381 120.585 74.9319C118.735 74.2177 117.147 72.8321 116.008 71.2273Z" fill="#000035"/>
<path d="M126.519 74.6994C126.097 76.9361 124.863 79.0055 123.294 80.5554C122.228 81.608 120.981 82.4545 119.648 82.8134C118.315 83.1724 116.894 83.0097 115.836 82.1967C114.868 81.4529 114.263 80.2231 113.968 78.9074C113.288 75.8698 114.209 72.3432 116.074 69.7011C117.37 67.866 119.204 66.3677 121.177 66.1198C125.155 65.6186 127.263 70.7431 126.519 74.6994Z" fill="#EBA08C"/>
<path d="M115.32 79.3577C116.274 79.3029 117.22 78.963 118.024 78.3857C118.268 78.2108 118.522 77.9636 118.511 77.6549C118.504 77.483 118.414 77.3317 118.322 77.1925C117.779 76.3703 117.103 75.6516 116.331 75.0759C116.895 73.8066 117.467 72.5213 118.308 71.4368C119.149 70.3515 120.303 69.4701 121.593 69.2906C122.885 69.1111 124.292 69.7705 124.785 71.0383C124.785 71.0383 126.517 74.6987 122.436 78.6611C118.134 82.8402 115.32 79.3577 115.32 79.3577Z" fill="#EBA08C"/>
<path d="M124.786 71.04C124.296 70.1365 123.356 69.6467 122.442 69.5897C121.526 69.5235 120.644 69.9114 119.918 70.4795C119.186 71.0552 118.6 71.8066 118.106 72.6333C117.618 73.4653 117.194 74.3582 116.775 75.2746L116.622 74.689C117.124 75.0868 117.58 75.5378 117.98 76.0313C118.176 76.2816 118.357 76.5417 118.525 76.8094C118.606 76.9455 118.692 77.0657 118.778 77.2626C118.866 77.4497 118.893 77.7418 118.8 77.9585C118.614 78.3928 118.277 78.5647 118.017 78.7236C117.743 78.8849 117.447 79.005 117.15 79.1085C116.555 79.3069 115.93 79.4096 115.32 79.3594C115.918 79.2385 116.484 79.0438 116.994 78.7548C117.25 78.6118 117.486 78.4407 117.715 78.2688C117.948 78.0969 118.141 77.8954 118.163 77.7479C118.171 77.6771 118.163 77.6482 118.119 77.5631C118.077 77.4855 117.981 77.3623 117.894 77.2474C117.717 77.0193 117.529 76.8002 117.331 76.5926C116.94 76.172 116.509 75.7918 116.043 75.467L115.731 75.2495L115.89 74.8814C116.289 73.9574 116.686 73.0037 117.242 72.11C117.785 71.2157 118.488 70.3639 119.393 69.7547C120.279 69.147 121.429 68.7637 122.529 69.0101C123.597 69.2314 124.55 70.0323 124.786 71.04Z" fill="#000035"/>
<path d="M46.278 74.6994C46.6993 76.9361 47.9337 79.0055 49.5027 80.5554C50.5689 81.608 51.8154 82.4545 53.1486 82.8134C54.4811 83.1724 55.9025 83.0097 56.9612 82.1967C57.9293 81.4529 58.534 80.2231 58.829 78.9074C59.509 75.8698 58.5895 72.3432 56.7231 69.7011C55.4272 67.866 53.5935 66.3677 51.62 66.1198C47.6416 65.6186 45.5335 70.7431 46.278 74.6994Z" fill="#EBA08C"/>
<path d="M57.4753 79.3577C56.5216 79.3029 55.5755 78.963 54.7716 78.3857C54.5282 78.2108 54.2735 77.9636 54.2849 77.6549C54.2917 77.483 54.3822 77.3317 54.4735 77.1925C55.0157 76.3703 55.6919 75.6516 56.4638 75.0759C55.9002 73.8066 55.3276 72.5213 54.4872 71.4368C53.646 70.3515 52.4923 69.4701 51.2017 69.2906C49.9103 69.1111 48.5033 69.7705 48.0105 71.0383C48.0105 71.0383 46.278 74.6987 50.359 78.6611C54.6629 82.8402 57.4753 79.3577 57.4753 79.3577Z" fill="#EBA08C"/>
<path d="M48.0106 71.04C48.2456 70.033 49.1993 69.2314 50.2686 69.0101C51.3675 68.7637 52.5182 69.147 53.4042 69.7547C54.31 70.3631 55.012 71.2157 55.5558 72.11C56.1117 73.0037 56.5087 73.9574 56.9072 74.8814L57.0662 75.2495L56.7544 75.467C56.2882 75.7918 55.857 76.172 55.4668 76.5926C55.2683 76.8002 55.0805 77.0193 54.9033 77.2474C54.8166 77.3623 54.72 77.4855 54.6781 77.5631C54.6348 77.6475 54.6264 77.6771 54.634 77.7479C54.6561 77.8962 54.8493 78.0977 55.082 78.2688C55.3117 78.4407 55.5474 78.6118 55.803 78.7548C56.3133 79.0438 56.8791 79.2377 57.4769 79.3594C56.867 79.4096 56.2433 79.3069 55.6471 79.1085C55.3504 79.0058 55.0546 78.8849 54.78 78.7236C54.5199 78.5647 54.1838 78.3928 53.9975 77.9585C53.9039 77.7418 53.932 77.4497 54.0195 77.2626C54.1047 77.0657 54.1914 76.9455 54.272 76.8094C54.4401 76.5417 54.6219 76.2816 54.8173 76.0313C55.2174 75.5378 55.6737 75.0875 56.1756 74.689L56.022 75.2746C55.6029 74.3589 55.1793 73.4653 54.6911 72.6341C54.1975 71.8066 53.6119 71.056 52.8795 70.4795C52.1532 69.9114 51.2717 69.5235 50.3553 69.5897C49.4404 69.6467 48.5011 70.1357 48.0106 71.04Z" fill="#000035"/>
<path d="M66.4229 67.4686C67.0405 66.0958 67.9219 64.8356 68.9577 63.7108C70.0126 62.6027 71.2333 61.6429 72.5718 60.8634C73.9065 60.096 75.3416 59.3758 76.9076 59.1788C78.456 58.9727 80.0653 59.0617 81.5133 59.6465L81.4966 59.7979C79.9809 60.0534 78.5785 60.2952 77.2042 60.6709C75.8459 61.0542 74.4442 61.3402 73.1323 61.9441C71.8242 62.5365 70.5883 63.3153 69.4825 64.2622C68.3577 65.1908 67.3781 66.3034 66.5568 67.5423L66.4229 67.4686Z" fill="#000035"/>
<path d="M109.074 67.5423C108.252 66.3034 107.273 65.1908 106.148 64.2622C105.042 63.3153 103.806 62.5365 102.498 61.9441C101.186 61.3402 99.7844 61.0542 98.4261 60.6709C97.0518 60.2952 95.6487 60.0534 94.1337 59.7979L94.1169 59.6465C95.565 59.0617 97.1743 58.9727 98.7227 59.1788C100.289 59.3765 101.724 60.096 103.059 60.8634C104.396 61.6429 105.618 62.6027 106.672 63.7108C107.707 64.8356 108.589 66.0958 109.207 67.4686L109.074 67.5423Z" fill="#000035"/>
<path d="M79.0236 88.4323C80.5157 89.8135 82.1448 91.0098 83.9031 91.8973C84.7838 92.3346 85.6904 92.7096 86.6334 92.9187C87.0981 93.0533 87.5757 93.102 88.048 93.1796C88.5241 93.1925 89.0055 93.2549 89.4679 93.1872C90.4049 93.1553 91.3297 92.8761 92.2081 92.4921C93.104 92.1354 93.9277 91.5939 94.7346 91.0318C96.337 89.8751 97.7744 88.4559 99.1114 86.9235C98.1494 88.7221 96.8527 90.3611 95.2677 91.7102C93.6995 93.048 91.7411 94.147 89.5432 94.2892C88.4572 94.3683 87.3863 94.223 86.3649 93.928C85.3428 93.6367 84.3708 93.2054 83.4871 92.6495C81.7052 91.5627 80.1742 90.1184 79.0236 88.4323Z" fill="#000035"/>
<path d="M71.8015 102.993C74.4245 104.56 77.2172 105.748 80.0806 106.596C82.9463 107.412 85.9222 107.873 88.8556 107.761C91.773 107.64 94.6425 106.751 97.3226 105.458C99.9989 104.141 102.528 102.46 104.862 100.489C102.957 102.893 100.546 104.903 97.8595 106.469C95.1725 108.033 92.1053 109.07 88.9225 109.232C85.761 109.328 82.6382 108.765 79.7201 107.689C76.8141 106.602 74.0694 105.062 71.8015 102.993Z" fill="#000035"/>
<path opacity="0.2" d="M104.335 86.1348C107.992 86.1348 110.957 83.8854 110.957 81.1107C110.957 78.336 107.992 76.0867 104.335 76.0867C100.677 76.0867 97.712 78.336 97.712 81.1107C97.712 83.8854 100.677 86.1348 104.335 86.1348Z" fill="#EBA08C"/>
<path opacity="0.2" d="M72.2098 86.1348C75.8674 86.1348 78.8325 83.8854 78.8325 81.1107C78.8325 78.336 75.8674 76.0867 72.2098 76.0867C68.5522 76.0867 65.5871 78.336 65.5871 81.1107C65.5871 83.8854 68.5522 86.1348 72.2098 86.1348Z" fill="#EBA08C"/>
<path d="M87.615 68.1216C87.8987 69.6305 88.3474 71.0953 88.7262 72.5791L89.8882 77.0228C90.6488 79.9889 91.3797 82.9641 92.0543 85.9507L92.1767 86.493L91.6474 86.515C90.7819 86.5508 89.9149 86.5606 89.0463 86.5515C88.1778 86.5416 87.307 86.5097 86.4347 86.442C87.288 86.2473 88.1451 86.0891 89.003 85.9522C89.8609 85.8168 90.7203 85.7005 91.582 85.6092L91.1751 86.1728C90.7598 84.6943 90.3895 83.2067 90.0145 81.7199C89.6631 80.2269 89.2988 78.7371 88.9901 77.2335C88.6668 75.7337 88.374 74.2264 88.1223 72.7091C87.99 71.9524 87.8804 71.1903 87.7899 70.4252C87.701 69.6617 87.596 68.8935 87.615 68.1216Z" fill="#000035"/>
<path d="M56.7506 50.8039C58.9561 54.0407 61.948 57.1672 65.8275 57.7057C66.6367 57.8182 67.6718 57.6722 67.9266 56.8957C68.033 56.5717 67.9646 56.2196 67.8923 55.8865C67.3341 53.3319 66.5363 50.8305 65.5134 48.4234C66.9189 50.432 69.1624 51.6686 71.3748 52.7242C74.6884 54.3046 78.1192 55.6386 81.6305 56.7124C84.3958 57.5581 87.2714 58.2479 90.1538 58.0145C90.8619 57.9574 91.7616 57.6228 91.722 56.9132C91.7061 56.6257 91.5243 56.377 91.3494 56.1481C90.1455 54.5685 88.9423 52.9881 87.7384 51.4085C89.7583 53.0665 92.3221 53.8825 94.8257 54.6286C102.335 56.8661 110.381 58.8054 117.915 56.6501C114.26 46.9046 106.937 37.8665 97.3568 33.7999C93.6918 32.2447 89.7485 31.2575 85.7671 31.2689C81.4587 31.2818 77.237 32.4538 73.1719 33.8821C69.4514 35.1894 65.7598 36.747 62.6432 39.1632C58.21 42.6008 55.1656 47.6652 53.7328 53.0885" fill="#000035"/>
<path d="M71.638 71.8636C71.3863 70.6809 71.8624 69.3553 72.7301 68.4153C73.5895 67.4639 74.8817 66.8098 76.2658 66.8357C77.65 66.8532 78.9209 67.5514 79.7483 68.5302C80.5849 69.4983 81.0169 70.8407 80.7241 72.0142C80.3689 70.8787 79.708 70.0132 78.914 69.3744C78.1162 68.7416 77.1663 68.3735 76.2407 68.356C75.3152 68.3408 74.3531 68.6777 73.5333 69.2838C72.718 69.8961 72.0289 70.7403 71.638 71.8636Z" fill="#000035"/>
<path d="M96.2503 71.8636C95.9985 70.6809 96.4746 69.3553 97.3424 68.4153C98.2018 67.4639 99.4939 66.8098 100.878 66.8357C102.262 66.8532 103.533 67.5514 104.361 68.5302C105.197 69.4983 105.629 70.8407 105.336 72.0142C104.98 70.8787 104.319 70.0132 103.525 69.3744C102.727 68.7416 101.777 68.3735 100.852 68.356C99.9267 68.3408 98.9646 68.6777 98.1447 69.2838C97.3302 69.8961 96.6412 70.7403 96.2503 71.8636Z" fill="#000035"/>
<g opacity="0.38">
<path d="M68.9281 39.9165C70.7876 42.44 73.0646 44.6394 75.6504 46.3749C78.2195 48.1295 81.0898 49.4368 84.0946 50.1897L83.7622 50.6537C82.4465 48.7212 81.1217 46.7955 79.7421 44.9086C78.3663 43.0195 76.9525 41.1577 75.5014 39.3263L76.0687 38.8495C78.1533 41.1356 80.5323 43.1587 83.1576 44.8082C85.7769 46.467 88.6243 47.7591 91.5813 48.7022C94.5374 49.6505 97.6206 50.2202 100.73 50.3753C103.84 50.554 106.977 50.2977 110.038 49.6338C107.019 50.4727 103.862 50.8218 100.716 50.7647C97.5689 50.6833 94.4294 50.1806 91.401 49.2885C88.3741 48.3896 85.4719 47.0708 82.7835 45.4075C80.1026 43.7359 77.6164 41.7205 75.5173 39.3461L76.0847 38.8693C77.5274 40.7204 78.9329 42.6004 80.2995 44.5078C81.6624 46.4183 83.0025 48.3447 84.2726 50.3175L84.7076 50.9929L83.9402 50.7807C80.8821 49.9365 77.9921 48.5341 75.4284 46.6936C72.8791 44.8333 70.6416 42.5449 68.9281 39.9165Z" fill="white"/>
<path d="M82.2784 33.8057C84.0786 35.5267 86.0644 37.025 88.2045 38.2426C90.3484 39.4511 92.6232 40.42 94.9869 41.0832C97.3461 41.7631 99.7896 42.1388 102.248 42.2399L104.097 42.2536L105.945 42.1403L107.79 41.9266C108.397 41.8072 109.008 41.6969 109.624 41.5927C109.03 41.7768 108.432 41.9547 107.829 42.1243L105.992 42.5107L104.124 42.7343L102.242 42.8263C99.725 42.8628 97.2046 42.4978 94.7793 41.8156C92.3585 41.1166 90.0244 40.099 87.9048 38.7423L86.3534 37.673L84.8832 36.4995L83.5242 35.2035C83.1013 34.7411 82.6868 34.2742 82.2784 33.8057Z" fill="white"/>
<path d="M121.688 84.7145C122.131 88.3194 122.52 91.9266 122.926 95.5315L124.141 106.345L125.359 117.158L125.972 122.565L126.551 127.98C126.205 126.197 125.914 124.406 125.603 122.616L124.778 117.232C124.253 113.64 123.82 110.034 123.385 106.429C123.011 102.817 122.629 99.2064 122.345 95.5863C122.061 91.9677 121.818 88.3445 121.688 84.7145Z" fill="white"/>
<path d="M113.645 96.0096C113.928 97.9893 114.128 99.975 114.315 101.961C114.51 103.947 114.647 105.936 114.783 107.925C114.901 109.915 115.018 111.906 115.076 113.9L115.159 116.892C115.159 117.892 115.186 118.889 115.163 119.889C115.014 118.899 114.914 117.907 114.787 116.916L114.491 113.938C114.296 111.952 114.16 109.962 114.024 107.974C113.907 105.983 113.791 103.992 113.734 101.998C113.669 100.005 113.615 98.0098 113.645 96.0096Z" fill="white"/>
<path d="M107.29 103.683C107.625 105.815 107.784 107.938 107.938 110.066C108.07 112.194 108.195 114.319 108.143 116.477C107.597 114.388 107.333 112.254 107.18 110.116C107.05 107.976 107.028 105.826 107.29 103.683Z" fill="white"/>
<path d="M70.189 106.882C70.4887 108.41 70.5564 109.938 70.5693 111.467C70.5587 112.994 70.491 114.522 70.189 116.051C69.8879 114.523 69.8202 112.994 69.8088 111.467C69.8217 109.939 69.8894 108.411 70.189 106.882Z" fill="white"/>
<path d="M58.6898 93.4487C58.7841 96.1022 58.7795 98.7557 58.7476 101.408C58.724 104.06 58.6267 106.711 58.5133 109.361C58.3825 112.009 58.235 114.658 58.0137 117.301L57.6684 121.265C57.5209 122.584 57.3969 123.904 57.2205 125.221C57.225 123.893 57.2752 122.568 57.2965 121.242L57.4304 117.268C57.514 114.619 57.641 111.972 57.7551 109.326L58.1665 101.387C58.3194 98.7413 58.4708 96.0946 58.6898 93.4487Z" fill="white"/>
<path d="M51.8443 90.0367C51.839 93.0302 51.7508 96.0191 51.6496 99.008C51.5507 101.996 51.3827 104.981 51.2526 107.968C51.0609 110.951 50.902 113.936 50.6799 116.918L50.3316 121.39C50.1879 122.879 50.07 124.37 49.9027 125.858C49.8973 124.36 49.9415 122.866 49.9589 121.37L50.0958 116.887C50.197 113.898 50.362 110.913 50.4936 107.927C50.6868 104.943 50.8435 101.958 51.0678 98.9768C51.2906 95.9947 51.5256 93.0135 51.8443 90.0367Z" fill="white"/>
</g>
<path d="M77.4157 116.46C84.5715 118.275 92.2179 118.116 99.2916 116.004" stroke="#000035" stroke-miterlimit="10"/>
<path d="M53.2369 134.395C51.9935 136.857 51.0542 139.45 50.4648 142.116C49.8845 144.782 49.6077 147.511 49.6837 150.233C49.743 152.955 50.1537 155.667 50.8648 158.301L51.4664 160.26L52.2018 162.175L53.0453 164.052C53.3746 164.654 53.6955 165.262 54.0134 165.876C53.6263 165.306 53.2438 164.731 52.8688 164.149L51.8626 162.33L51.0162 160.428L50.3043 158.468C49.4442 155.82 49.0008 153.038 48.924 150.251C48.8646 147.464 49.1696 144.664 49.8989 141.976L50.5135 139.984L51.2649 138.042L52.179 136.176C52.5251 135.577 52.8787 134.983 53.2369 134.395Z" fill="#000035"/>
<path d="M125.171 134.395C125.529 134.983 125.883 135.577 126.229 136.177L127.143 138.043L127.894 139.985L128.509 141.977C129.237 144.665 129.543 147.464 129.484 150.252C129.406 153.038 128.964 155.82 128.104 158.468L127.392 160.428L126.545 162.33L125.54 164.15C125.164 164.731 124.782 165.307 124.395 165.877C124.713 165.262 125.034 164.655 125.363 164.053L126.207 162.176L126.942 160.26L127.544 158.302C128.256 155.667 128.666 152.956 128.725 150.233C128.801 147.512 128.524 144.783 127.944 142.116C127.354 139.45 126.414 136.857 125.171 134.395Z" fill="#000035"/>
</g>
</svg>
