<svg width="174" height="174" viewBox="0 0 174 174" fill="none" xmlns="http://www.w3.org/2000/svg">
<path d="M87 166.631C130.978 166.631 166.63 130.979 166.63 87.0008C166.63 43.0224 130.978 7.37097 87 7.37097C43.0217 7.37097 7.37024 43.0224 7.37024 87.0008C7.37024 130.979 43.0217 166.631 87 166.631Z" fill="#A8A09D"/>
<path d="M87 173C134.496 173 173 134.496 173 87C173 39.5035 134.496 1 87 1C39.5035 1 1 39.5035 1 87C1 134.496 39.5035 173 87 173Z" stroke="#A8A09D" stroke-width="2" stroke-miterlimit="10"/>
<mask id="mask0_1_1766" style="mask-type:luminance" maskUnits="userSpaceOnUse" x="7" y="7" width="160" height="160">
<path d="M166.13 87.0008C166.13 130.703 130.702 166.131 87 166.131C43.2978 166.131 7.87024 130.703 7.87024 87.0008C7.87024 43.2986 43.2978 7.87097 87 7.87097C130.702 7.87097 166.13 43.2986 166.13 87.0008Z" fill="white" stroke="white"/>
</mask>
<g mask="url(#mask0_1_1766)">
<path d="M94.5011 110.701C93.4561 105.071 94.1163 100.011 94.1163 100.011L85.4584 100.608L76.1837 100.011C76.1837 100.011 77.2796 105.282 76.2925 111.051C82.2854 112.3 88.5583 112.171 94.5011 110.701Z" fill="#EBA08C"/>
<path d="M115.357 69.687C115.357 87.0058 104.343 107.675 83.999 107.675C63.6549 107.675 52.6409 87.0058 52.6409 69.687C52.6409 52.3683 57.9585 32.7009 83.999 32.7009C110.04 32.7009 115.357 52.369 115.357 69.687Z" fill="#EBA08C"/>
<path d="M63.5293 66.1752C64.051 64.7393 64.8876 63.4107 65.8809 62.1938C66.8946 60.9922 68.1138 59.9434 69.4774 59.0985C69.8219 58.8947 70.1672 58.6878 70.5102 58.468L71.5841 57.8816C71.9575 57.7181 72.34 57.5698 72.7287 57.4428C73.1257 57.3439 73.5303 57.2724 73.9356 57.2207C75.5647 57.0876 77.2721 57.3371 78.6882 58.3166L78.6555 58.6095C77.1086 59.2597 75.8027 59.662 74.5098 60.1107C74.1904 60.2309 73.8695 60.3298 73.5417 60.4028C73.22 60.4986 72.8907 60.5724 72.5537 60.6325L71.5468 60.8621C71.2167 60.9618 70.8897 61.0751 70.5612 61.1907C69.2789 61.7177 68.0408 62.4083 66.8946 63.2609C65.728 64.0967 64.7028 65.1409 63.7856 66.3174L63.5293 66.1752Z" fill="#000035"/>
<path d="M94.1871 68.6583C94.1871 70.1976 95.4352 71.4448 96.9737 71.4448C98.513 71.4448 99.7603 70.1968 99.7603 68.6583C99.7603 67.119 98.513 65.8717 96.9737 65.8717C95.4352 65.8717 94.1871 67.119 94.1871 68.6583Z" fill="#000035"/>
<path d="M106.18 66.3174C105.263 65.1416 104.238 64.0974 103.071 63.2609C101.925 62.4083 100.687 61.717 99.4044 61.1907C99.0758 61.0751 98.7488 60.9618 98.4187 60.8621L97.4125 60.6325C97.0756 60.5724 96.7463 60.4986 96.4246 60.4028C96.0968 60.329 95.7766 60.2301 95.4565 60.1107C94.1628 59.662 92.8577 59.2597 91.31 58.6095L91.2773 58.3166C92.6942 57.3371 94.4008 57.0876 96.0299 57.2207C96.4353 57.2724 96.8399 57.3439 97.2369 57.4428C97.6255 57.5698 98.008 57.7181 98.3815 57.8816L99.4553 58.468C99.7983 58.6878 100.144 58.8947 100.488 59.0985C101.852 59.9442 103.071 60.9922 104.085 62.1938C105.079 63.4107 105.915 64.7401 106.437 66.1752L106.18 66.3174Z" fill="#000035"/>
<path d="M75.4316 87.1732C76.9238 88.5543 78.5536 89.7507 80.3112 90.6382C81.1911 91.0755 82.0984 91.4512 83.0415 91.6596C83.5062 91.7942 83.9838 91.8429 84.4561 91.9204C84.9322 91.9334 85.4136 91.9957 85.876 91.9273C86.813 91.8954 87.7378 91.6162 88.6162 91.2322C89.5121 90.8755 90.3357 90.3348 91.1427 89.772C92.7451 88.6152 94.1825 87.196 95.5195 85.6636C94.5575 87.4622 93.2607 89.1012 91.6758 90.4504C90.1076 91.7881 88.1492 92.8871 85.9513 93.0293C84.8645 93.1084 83.7944 92.9631 82.773 92.6681C81.7509 92.3768 80.7797 91.9455 79.8952 91.3896C78.114 90.3036 76.5831 88.8593 75.4316 87.1732Z" fill="#000035"/>
<path d="M68.9701 103.255C71.67 104.518 74.4794 105.431 77.3245 106.091C80.1735 106.709 83.0886 107.067 85.9672 106.976C88.8268 106.887 91.659 106.159 94.3505 105.064C97.0405 103.951 99.6179 102.499 102.03 100.751C100.016 102.963 97.5318 104.752 94.8243 106.109C93.4721 106.798 92.0362 107.326 90.5646 107.746C89.0861 108.138 87.5597 108.385 86.0197 108.449C82.9562 108.517 79.9278 108.073 77.031 107.202C74.1501 106.31 71.3658 105.051 68.9701 103.255Z" fill="#000035"/>
<path opacity="0.2" d="M108.127 79.8512C108.127 82.6256 105.162 84.8753 101.504 84.8753C97.846 84.8753 94.8815 82.6256 94.8815 79.8512C94.8815 77.076 97.8468 74.8271 101.504 74.8271C105.162 74.8271 108.127 77.0768 108.127 79.8512Z" fill="#EBA08C"/>
<path opacity="0.2" d="M76.0021 79.8512C76.0021 82.6256 73.0368 84.8753 69.3794 84.8753C65.7213 84.8753 62.7567 82.6256 62.7567 79.8512C62.7567 77.076 65.722 74.8271 69.3794 74.8271C73.0368 74.8271 76.0021 77.0768 76.0021 79.8512Z" fill="#EBA08C"/>
<path d="M116.209 74.4544C109.877 68.2158 106.909 59.2271 106.333 50.3563C99.0187 54.5233 90.4757 56.5021 82.0749 55.9736C73.6733 55.445 65.9569 52.9284 59.2225 47.8777C59.2057 53.2699 59.1806 58.732 57.8041 63.9462C56.4275 69.1604 53.5261 74.1852 48.9226 76.9939C45.5991 64.0679 48.1423 45.9604 56.1651 35.2948C56.3104 32.1834 58.6581 27.6605 61.9954 26.1182C62.1459 26.0482 62.3292 25.9897 62.4707 26.0764C62.6388 26.1798 62.6433 26.4194 62.622 26.6156C62.4646 28.0804 62.0052 29.5125 61.2812 30.7955C62.4083 29.3071 63.8442 28.053 65.4702 27.1358C66.2026 26.7228 67.0323 26.3684 67.8621 26.5038C67.5746 27.6377 67.008 28.7002 66.2262 29.571C74.7145 26.0695 84.1549 25.2801 93.1413 27.1647C99.8736 28.5762 106.527 31.7165 110.633 37.2356C112.295 39.4693 113.487 42.0171 114.484 44.6158C118.368 54.743 118.426 63.8367 116.209 74.4544Z" fill="#000035"/>
<path d="M123.687 74.9612C123.266 77.1979 122.032 79.2673 120.463 80.8173C119.396 81.8699 118.15 82.7163 116.817 83.0753C115.484 83.4343 114.063 83.2715 113.005 82.4585C112.037 81.7147 111.432 80.4849 111.137 79.1692C110.457 76.1317 111.377 72.6043 113.243 69.963C114.539 68.1278 116.372 66.6296 118.346 66.3816C122.324 65.8805 124.432 71.0049 123.687 74.9612Z" fill="#EBA08C"/>
<path d="M112.49 79.6203C113.444 79.5656 114.39 79.2256 115.194 78.6483C115.437 78.4734 115.692 78.2255 115.68 77.9175C115.674 77.7456 115.583 77.5942 115.492 77.4551C114.95 76.6329 114.273 75.9142 113.501 75.3385C114.065 74.0692 114.638 72.7839 115.478 71.6986C116.319 70.6133 117.473 69.7311 118.764 69.5524C120.055 69.3729 121.462 70.0323 121.955 71.3001C121.955 71.3001 123.687 74.9605 119.606 78.9229C115.302 83.1028 112.49 79.6203 112.49 79.6203Z" fill="#EBA08C"/>
<path d="M121.955 71.302C121.465 70.3985 120.525 69.9087 119.611 69.8517C118.694 69.7855 117.813 70.1734 117.087 70.7415C116.354 71.3172 115.768 72.0686 115.275 72.896C114.787 73.7281 114.363 74.6209 113.944 75.5374L113.79 74.9518C114.293 75.3495 114.749 75.8005 115.149 76.2941C115.344 76.5443 115.526 76.8044 115.694 77.0721C115.775 77.2083 115.861 77.3292 115.947 77.5254C116.035 77.7125 116.062 78.0045 115.969 78.2213C115.782 78.6556 115.446 78.8274 115.186 78.9864C114.911 79.1476 114.616 79.2678 114.319 79.3704C113.723 79.5689 113.099 79.6716 112.489 79.6214C113.086 79.5005 113.653 79.3058 114.163 79.0168C114.419 78.8738 114.654 78.7027 114.884 78.5308C115.116 78.3589 115.31 78.1574 115.332 78.0099C115.34 77.9391 115.331 77.9102 115.288 77.8251C115.245 77.7467 115.149 77.6243 115.063 77.5094C114.886 77.2813 114.698 77.0622 114.499 76.8546C114.109 76.434 113.678 76.0538 113.212 75.729L112.9 75.5115L113.058 75.1434C113.457 74.2194 113.854 73.2657 114.409 72.372C114.953 71.4777 115.656 70.6259 116.561 70.0167C117.447 69.4098 118.597 69.0257 119.697 69.2721C120.766 69.4934 121.719 70.2951 121.955 71.302Z" fill="#000035"/>
<path d="M43.4468 74.9612C43.8681 77.1979 45.1017 79.2673 46.6714 80.8173C47.7377 81.8699 48.9842 82.7163 50.3174 83.0753C51.6499 83.4343 53.0713 83.2715 54.13 82.4585C55.0981 81.7147 55.7027 80.4849 55.9978 79.1692C56.6777 76.1317 55.7583 72.6043 53.8919 69.963C52.596 68.1278 50.7623 66.6296 48.7888 66.3816C44.8112 65.8805 42.7022 71.0049 43.4468 74.9612Z" fill="#EBA08C"/>
<path d="M54.6449 79.6203C53.6912 79.5656 52.7451 79.2256 51.9412 78.6483C51.6979 78.4734 51.4431 78.2255 51.4545 77.9175C51.4613 77.7456 51.5518 77.5942 51.6431 77.4551C52.1854 76.6329 52.8615 75.9142 53.6334 75.3385C53.0698 74.0692 52.4972 72.7839 51.6568 71.6986C50.8156 70.6133 49.6619 69.7311 48.3713 69.5524C47.0799 69.3729 45.6729 70.0323 45.1801 71.3001C45.1801 71.3001 43.4476 74.9605 47.5286 78.9229C51.8325 83.1028 54.6449 79.6203 54.6449 79.6203Z" fill="#EBA08C"/>
<path d="M45.1793 71.3021C45.4151 70.2951 46.368 69.4935 47.4373 69.2722C48.5363 69.0258 49.687 69.4091 50.573 70.0168C51.4788 70.626 52.1808 71.4777 52.7253 72.3721C53.2812 73.2657 53.6782 74.2195 54.0768 75.1435L54.235 75.5116L53.9231 75.7291C53.4569 76.0539 53.0257 76.4341 52.6356 76.8547C52.4371 77.0623 52.2492 77.2814 52.072 77.5095C51.9853 77.6244 51.8887 77.7476 51.8469 77.8251C51.8035 77.9103 51.7952 77.9392 51.8028 78.0099C51.8248 78.1582 52.018 78.3598 52.2507 78.5309C52.4804 78.7028 52.7162 78.8739 52.9717 79.0169C53.482 79.3059 54.0479 79.4998 54.6456 79.6215C54.0357 79.6717 53.4121 79.569 52.8158 79.3705C52.5192 79.2679 52.2233 79.1469 51.9488 78.9865C51.6887 78.8275 51.3525 78.6556 51.167 78.2214C51.0734 78.0046 51.1008 77.7126 51.189 77.5255C51.2742 77.3285 51.3609 77.2083 51.4408 77.0722C51.6088 76.8045 51.7906 76.5444 51.9861 76.2942C52.3861 75.8006 52.8424 75.3504 53.3444 74.9518L53.1907 75.5375C52.7717 74.6218 52.3481 73.7281 51.8598 72.8961C51.367 72.0687 50.7806 71.318 50.0482 70.7416C49.3219 70.1734 48.4405 69.7856 47.524 69.8517C46.6091 69.908 45.6699 70.3978 45.1793 71.3021Z" fill="#000035"/>
<path d="M68.6758 120.475C67.4286 121.086 66.0543 121.681 64.604 122.266C56.0952 125.702 44.8424 128.799 39.5551 132.765C30.9437 139.223 26.9456 166.595 26.9456 166.595H79.5149C77.6182 150.612 74.8764 134.73 71.2944 119.039C70.5034 119.528 69.6311 120.007 68.6758 120.475Z" fill="#000035"/>
<path d="M86.8191 128.941C87.1134 128.933 87.3317 128.676 87.5089 128.441C90.5685 124.378 93.4091 120.149 96.0253 115.788C95.8884 115.555 95.7728 115.319 95.6846 115.08C95.1499 113.632 94.7704 112.148 94.5012 110.7C88.5584 112.17 82.2855 112.298 76.2926 111.05C76.0636 112.387 75.7237 113.749 75.2316 115.08C75.1008 115.434 74.897 115.779 74.662 116.118C78.4821 120.253 82.3023 124.387 86.1224 128.522C86.3125 128.727 86.5392 128.949 86.8191 128.941Z" fill="#EBA08C"/>
<path d="M131.36 132.765C125.796 128.592 113.623 125.38 104.997 121.723C103.805 121.217 102.684 120.703 101.655 120.177C101.575 120.135 101.503 120.094 101.424 120.053C97.4886 135.335 94.6701 150.903 93.0045 166.596H143.971C143.971 166.596 139.972 139.223 131.36 132.765Z" fill="#000035"/>
<path d="M96.0246 115.787C93.4084 120.15 90.5678 124.377 87.5082 128.441C87.331 128.676 87.1127 128.932 86.8184 128.941C86.5385 128.948 86.3119 128.726 86.1218 128.521C82.3016 124.387 78.4815 120.252 74.6613 116.117C73.9495 117.145 72.7881 118.113 71.2937 119.037C74.8758 134.728 77.6175 150.611 79.5143 166.594H85.2259H85.6875H93.0023C94.6671 150.901 97.4864 135.334 101.422 120.052C98.8797 118.728 96.9327 117.327 96.0246 115.787Z" fill="white"/>
<path d="M95.6785 115.58C96.8512 116.515 97.9448 117.44 99.1176 118.284C100.277 119.145 101.491 119.907 102.736 120.742C101.256 120.464 99.8842 119.774 98.6689 118.897C97.4657 118.003 96.3926 116.905 95.6785 115.58Z" fill="#000035"/>
<path d="M70.7932 119.449C71.7325 118.442 72.7797 117.623 73.7197 116.716C74.6765 115.821 75.5161 114.869 76.2439 113.706C76.1724 114.394 75.9108 115.059 75.5534 115.656C75.199 116.259 74.7381 116.79 74.2415 117.268C73.2269 118.208 72.0671 118.938 70.7932 119.449Z" fill="#000035"/>
<path d="M80.4419 133.296L84.4301 139.485L79.0669 162.588L79.5156 166.596H93.0036L93.5063 162.863L88.9682 139.898L93.0941 133.571L86.819 128.942L80.4419 133.296Z" fill="#F0C02A"/>
<path d="M73.7037 137.697C73.979 137.284 86.8191 128.942 86.8191 128.942L100.245 139.072" stroke="#000035" stroke-miterlimit="10"/>
<path d="M57.8057 124.208L72.8261 166.418" stroke="white" stroke-miterlimit="10"/>
<path d="M113.705 124.208L98.6841 166.418" stroke="white" stroke-miterlimit="10"/>
<g opacity="0.28">
<path d="M56.3044 35.7637C59.2568 39.955 63.2945 43.2929 67.8326 45.5517C72.3722 47.812 77.416 49.0661 82.4788 49.073C87.5288 49.1323 92.6471 47.9877 96.9966 45.3882C99.1664 44.096 101.116 42.4183 102.707 40.4425C104.317 38.4818 105.543 36.1941 106.261 33.7354C105.709 36.2413 104.539 38.6012 103.001 40.6721C101.44 42.7317 99.4934 44.4984 97.3031 45.8871C92.8966 48.6638 87.633 49.8358 82.475 49.8335C77.2974 49.7643 72.1364 48.4866 67.5671 46.0704C65.2863 44.8596 63.1469 43.3842 61.2327 41.6593C59.3352 39.9177 57.6437 37.9487 56.3044 35.7637Z" fill="white"/>
<path d="M63.9591 32.7202C65.1105 33.5484 66.3183 34.2861 67.5982 34.8679C68.8645 35.4741 70.1924 35.9426 71.5515 36.2635C74.2658 36.9191 77.098 37.0408 79.8344 36.5449C82.5738 36.0711 85.2038 35.0063 87.5492 33.4959C88.7197 32.7369 89.8156 31.8501 90.7997 30.8554C91.7861 29.8743 92.6235 28.6947 92.9391 27.3014C92.7961 28.7319 91.993 30.0203 91.0743 31.1071C90.1206 32.1795 89.0437 33.1362 87.8785 33.9788C85.5391 35.6528 82.8088 36.7852 79.9667 37.2932C77.1208 37.7906 74.1624 37.6385 71.4024 36.8263C68.6371 36.0422 66.0597 34.6306 63.9591 32.7202Z" fill="white"/>
<path d="M113.059 42.835C112.57 44.8983 112.096 46.9578 111.817 49.0371C111.547 51.1149 111.429 53.2101 111.646 55.2765C111.845 57.3383 112.4 59.3651 113.288 61.2405C114.183 63.1107 115.471 64.8112 117.132 66.1323C116.208 65.6075 115.384 64.9071 114.642 64.1313C113.917 63.3381 113.293 62.4505 112.768 61.5082C111.717 59.6183 111.114 57.498 110.889 55.351C110.684 53.2025 110.828 51.0365 111.242 48.9413C111.647 46.8445 112.271 44.804 113.059 42.835Z" fill="white"/>
<path d="M52.4667 42.2023C53.0455 43.0746 53.5018 44.0268 53.8942 45.0056C54.2646 45.9935 54.5407 47.018 54.7293 48.0614C55.1058 50.1498 55.0563 52.3181 54.6137 54.4042C54.1551 56.4866 53.3033 58.4814 52.0971 60.2276C51.494 61.0999 50.8179 61.9183 50.0733 62.6643C49.3105 63.3929 48.5021 64.0713 47.6138 64.6257C48.3979 63.9344 49.144 63.2104 49.8003 62.4103C50.4741 61.6285 51.0803 60.7919 51.6058 59.9105C52.6568 58.1498 53.4478 56.2379 53.8714 54.243C54.3118 52.2512 54.3817 50.1833 54.1536 48.1458C53.9155 46.1076 53.3352 44.1028 52.4667 42.2023Z" fill="white"/>
</g>
<path d="M85.6768 66.3103C85.9871 68.4421 86.3742 70.5388 86.9012 72.587C87.0336 73.0889 87.1948 73.546 87.4496 73.8806C87.7051 74.2175 88.1105 74.4898 88.5592 74.7993C89.5098 75.4321 90.3046 76.3987 90.7685 77.4696C91.2233 78.5503 91.3792 79.7762 91.1541 80.9338C90.9229 82.0822 90.3845 83.1667 89.5699 83.9941C88.7638 84.8383 87.7104 85.3768 86.6366 85.6559C85.5543 85.9206 84.4439 85.9601 83.3777 85.7981C85.5041 85.643 87.6427 84.9448 88.9083 83.3987C90.17 81.87 90.5282 79.6903 89.7213 77.9183C89.3425 77.0178 88.7379 76.255 87.9234 75.6679C87.5127 75.3469 87.0153 75.0024 86.6404 74.4617C86.2669 73.9179 86.1331 73.3171 86.0365 72.7778C85.6593 70.6362 85.5148 68.4618 85.6768 66.3103Z" fill="#000035"/>
<path d="M71.3712 68.658C71.3712 70.1974 72.6192 71.4446 74.1578 71.4446C75.6971 71.4446 76.9444 70.1966 76.9444 68.658C76.9444 67.1187 75.6971 65.8715 74.1578 65.8715C72.6192 65.8715 71.3712 67.1187 71.3712 68.658Z" fill="#000035"/>
</g>
</svg>
