<svg width="174" height="174" viewBox="0 0 174 174" fill="none" xmlns="http://www.w3.org/2000/svg">
<path d="M87 166.629C130.978 166.629 166.63 130.978 166.63 86.9992C166.63 43.0209 130.978 7.36945 87 7.36945C43.0217 7.36945 7.37024 43.0209 7.37024 86.9992C7.37024 130.978 43.0217 166.629 87 166.629Z" fill="#A8A09D"/>
<path d="M87 173C134.496 173 173 134.496 173 87C173 39.5035 134.496 1 87 1C39.5035 1 1 39.5035 1 87C1 134.496 39.5035 173 87 173Z" stroke="#A8A09D" stroke-width="2" stroke-miterlimit="10"/>
<mask id="mask0_1_1137" style="mask-type:luminance" maskUnits="userSpaceOnUse" x="7" y="7" width="160" height="160">
<path d="M87 166.624C130.978 166.624 166.63 130.973 166.63 86.9943C166.63 43.016 130.978 7.3645 87 7.3645C43.0217 7.3645 7.37024 43.016 7.37024 86.9943C7.37024 130.973 43.0217 166.624 87 166.624Z" fill="white"/>
</mask>
<g mask="url(#mask0_1_1137)">
<path d="M68.8949 160.125C54.444 159.996 40.0632 155.41 28.2057 147.148C16.3483 138.887 7.66458 126.642 2.53784 113.131C5.09627 108.526 7.90718 103.669 12.5814 101.24C14.7413 100.119 17.1917 99.5848 19.2429 98.2752C22.5839 96.1426 24.3818 92.2791 25.5416 88.4886C26.7014 84.6989 27.4254 80.7138 29.3906 77.2716C31.2874 73.9496 34.2527 71.3273 37.5412 69.3727C40.7195 67.4836 44.3145 66.1002 46.8007 63.3638C49.277 60.6373 50.3136 56.935 51.2726 53.3788C52.5016 54.3485 54.2014 53.6465 55.7643 53.7248C64.2982 54.153 72.8907 53.4122 81.2253 51.5292C85.2615 74.247 83.6491 97.6127 81.2983 120.566C80.4754 128.606 79.6503 136.658 78.1056 144.59C76.9534 150.508 73.6003 156.358 68.8949 160.125Z" fill="#000035"/>
<path d="M103.936 160.125C118.386 159.996 132.767 155.41 144.625 147.148C156.482 138.887 165.166 126.642 170.293 113.131C167.734 108.526 164.923 103.669 160.249 101.24C158.089 100.119 155.639 99.5848 153.588 98.2752C150.247 96.1426 148.449 92.2791 147.289 88.4886C146.129 84.6989 145.405 80.7138 143.44 77.2716C141.543 73.9496 138.578 71.3273 135.29 69.3727C132.112 67.4836 128.517 66.1002 126.03 63.3638C123.554 60.6373 122.518 56.935 121.559 53.3788C120.33 54.3485 118.63 53.6465 117.066 53.7248C108.532 54.153 99.9397 53.4122 91.6051 51.5292C87.5697 74.247 89.182 97.6127 91.5321 120.566C92.355 128.606 93.1801 136.658 94.7248 144.59C95.877 150.508 99.2301 156.358 103.936 160.125Z" fill="#000035"/>
<path d="M109.376 123.436C108.85 123.225 108.331 123.013 107.828 122.8C107.698 122.745 107.579 122.689 107.451 122.634C106.623 122.276 105.838 121.913 105.086 121.545C104.887 121.448 104.678 121.352 104.486 121.254C104.078 121.046 103.688 120.834 103.31 120.622C101.387 119.537 99.8994 118.394 99.0583 117.165C98.8324 116.836 98.6438 116.501 98.5168 116.158C95.9028 109.085 96.9493 101.089 96.9493 101.089L88.2915 101.685L79.0168 101.089C79.0168 101.089 80.6793 109.085 78.0654 116.158C77.9924 116.355 77.895 116.549 77.7893 116.742C76.955 118.256 75.1183 119.636 72.6877 120.939C72.5705 121.001 72.461 121.065 72.3416 121.128C72.0678 121.27 71.7971 121.413 71.5104 121.554C70.7012 121.951 69.8334 122.339 68.9314 122.724C68.4431 122.932 67.948 123.139 67.4392 123.345C67.0628 123.497 66.6757 123.647 66.2893 123.798L88.115 156.536L109.376 123.436Z" fill="#EBA08C"/>
<path d="M134.192 133.841C128.952 129.912 117.855 126.835 109.376 123.435L88.1119 156.535L66.2862 123.796C57.9379 127.054 47.441 130.051 42.3873 133.841C33.7758 140.3 29.7777 167.672 29.7777 167.672H67.8666H73.5957H88.0579H88.5195H109.898H118.707H146.8C146.8 167.672 142.803 140.3 134.192 133.841Z" fill="#2847FB"/>
<path d="M86.4242 98.8802C106.678 98.8802 123.097 83.0303 123.097 63.4783C123.097 43.9264 106.678 28.0764 86.4242 28.0764C66.1704 28.0764 49.7515 43.9264 49.7515 63.4783C49.7515 83.0303 66.1704 98.8802 86.4242 98.8802Z" fill="#000035"/>
<path d="M118.189 70.7653C118.189 88.0841 107.175 108.753 86.8303 108.753C66.4862 108.753 55.4722 88.0841 55.4722 70.7653C55.4722 53.4465 69.5116 39.4071 86.8303 39.4071C104.149 39.4071 118.189 53.4472 118.189 70.7653Z" fill="#EBA08C"/>
<path d="M58.9653 71.8215C62.2242 66.3853 64.8275 53.241 63.3581 50.0856C62.9056 49.1136 59.9616 50.3175 59.1281 49.8125C57.6549 48.9189 55.7749 49.4832 54.5162 50.7579C53.2576 52.0325 52.5221 53.8867 52.005 55.7515C50.49 61.2182 50.5919 67.1123 51.4513 72.7189C51.8612 75.3945 51.776 77.4114 54.3877 76.2174C56.2381 75.3694 57.8245 73.7236 58.9653 71.8215Z" fill="#000035"/>
<path d="M114.449 72.2471C112.86 69.5883 112.04 66.3842 111.557 63.1748C111.023 59.6261 110.913 55.774 112.381 52.6186C112.834 51.6466 113.452 50.7431 114.286 50.2374C115.759 49.3438 117.639 49.9081 118.897 51.182C120.156 52.4566 120.891 54.3108 121.409 56.1756C122.924 61.6423 122.822 67.5364 121.962 73.143C121.552 75.8186 121.638 77.8355 119.026 76.6415C117.176 75.795 115.587 74.1507 114.449 72.2471Z" fill="#000035"/>
<path d="M126.519 76.0373C126.097 78.2741 124.863 80.3435 123.294 81.8934C122.228 82.946 120.981 83.7925 119.648 84.1514C118.316 84.5104 116.894 84.3477 115.836 83.5347C114.868 82.7909 114.263 81.5611 113.968 80.2454C113.288 77.2078 114.209 73.6805 116.074 71.0391C117.37 69.204 119.204 67.7058 121.177 67.4578C125.155 66.9566 127.263 72.0803 126.519 76.0373Z" fill="#EBA08C"/>
<path d="M115.321 80.6965C116.274 80.6417 117.22 80.3018 118.024 79.7245C118.268 79.5496 118.522 79.3017 118.511 78.9937C118.504 78.8218 118.414 78.6704 118.322 78.5313C117.779 77.7091 117.103 76.9904 116.331 76.4147C116.895 75.1454 117.468 73.8601 118.308 72.7748C119.149 71.6895 120.303 70.8081 121.593 70.6286C122.885 70.4491 124.292 71.1085 124.785 72.3763C124.785 72.3763 126.517 76.0367 122.436 79.9991C118.134 84.1782 115.321 80.6965 115.321 80.6965Z" fill="#EBA08C"/>
<path d="M124.786 72.3782C124.296 71.4739 123.356 70.9849 122.442 70.9278C121.526 70.8617 120.644 71.2495 119.918 71.8177C119.186 72.3934 118.599 73.1448 118.106 73.9722C117.618 74.8043 117.195 75.6971 116.775 76.6128L116.622 76.0272C117.124 76.425 117.581 76.8759 117.98 77.3695C118.176 77.6197 118.357 77.8798 118.525 78.1475C118.606 78.2837 118.692 78.4039 118.777 78.6008C118.865 78.7879 118.893 79.08 118.799 79.2967C118.613 79.731 118.277 79.9029 118.017 80.0618C117.742 80.223 117.446 80.3432 117.15 80.4466C116.553 80.6451 115.93 80.7478 115.32 80.6976C115.917 80.5767 116.483 80.382 116.994 80.093C117.249 79.95 117.485 79.7789 117.715 79.607C117.947 79.4351 118.141 79.2336 118.163 79.086C118.17 79.0153 118.162 78.9864 118.119 78.9012C118.077 78.8237 117.98 78.7005 117.893 78.5856C117.716 78.3575 117.528 78.1384 117.33 77.9308C116.94 77.5102 116.509 77.13 116.042 76.8052L115.73 76.5877L115.889 76.2196C116.288 75.2956 116.685 74.3419 117.241 73.4482C117.785 72.5539 118.487 71.7021 119.392 71.0929C120.278 70.486 121.428 70.1019 122.528 70.3483C123.597 70.5704 124.55 71.3712 124.786 72.3782Z" fill="#000035"/>
<path d="M46.2781 76.0373C46.6995 78.2741 47.9338 80.3435 49.5028 81.8934C50.569 82.946 51.8156 83.7925 53.1488 84.1514C54.4812 84.5104 55.9026 84.3477 56.9613 83.5347C57.9295 82.7909 58.5341 81.5611 58.8292 80.2454C59.5091 77.2078 58.5896 73.6805 56.7232 71.0391C55.4273 69.204 53.5937 67.7058 51.6201 67.4578C47.6418 66.9566 45.5336 72.0803 46.2781 76.0373Z" fill="#EBA08C"/>
<path d="M57.4755 80.6965C56.5218 80.6417 55.5757 80.3018 54.7718 79.7245C54.5284 79.5496 54.2736 79.3017 54.285 78.9937C54.2919 78.8218 54.3824 78.6704 54.4737 78.5313C55.0159 77.7091 55.692 76.9904 56.464 76.4147C55.9004 75.1454 55.3278 73.8601 54.4874 72.7748C53.6462 71.6895 52.4925 70.8081 51.2019 70.6286C49.9105 70.4491 48.5035 71.1085 48.0107 72.3763C48.0107 72.3763 46.2782 76.0367 50.3592 79.9991C54.663 84.1782 57.4755 80.6965 57.4755 80.6965Z" fill="#EBA08C"/>
<path d="M48.0106 72.3782C48.2456 71.3713 49.1993 70.5697 50.2686 70.3484C51.3676 70.102 52.5183 70.4853 53.4043 71.0929C54.3101 71.7014 55.0121 72.5539 55.5559 73.4483C56.1118 74.3419 56.5088 75.2956 56.9073 76.2197L57.0663 76.5878L56.7544 76.8053C56.2882 77.13 55.857 77.5103 55.4669 77.9309C55.2684 78.1385 55.0805 78.3575 54.9033 78.5857C54.8166 78.7005 54.72 78.8237 54.6782 78.9013C54.6348 78.9857 54.6265 79.0154 54.6341 79.0861C54.6561 79.2344 54.8493 79.436 55.082 79.6071C55.3117 79.779 55.5475 79.9501 55.803 80.0931C56.3133 80.3821 56.8792 80.576 57.477 80.6977C56.867 80.7479 56.2434 80.6452 55.6471 80.4467C55.3505 80.344 55.0547 80.2231 54.7801 80.0619C54.52 79.9029 54.1839 79.7311 53.9975 79.2968C53.904 79.08 53.9321 78.788 54.0196 78.6009C54.1047 78.4039 54.1915 78.2838 54.2721 78.1476C54.4401 77.8799 54.6219 77.6198 54.8174 77.3696C55.2174 76.876 55.6737 76.4258 56.1757 76.0273L56.022 76.6129C55.603 75.6972 55.1794 74.8036 54.6911 73.9723C54.1975 73.1449 53.6119 72.3942 52.8795 71.8177C52.1532 71.2496 51.2718 70.8618 50.3553 70.9279C49.4404 70.985 48.5004 71.4747 48.0106 72.3782Z" fill="#000035"/>
<path d="M78.6114 68.9757C78.6114 70.515 77.3633 71.7623 75.8248 71.7623C74.2855 71.7623 73.0382 70.5142 73.0382 68.9757C73.0382 67.4364 74.2862 66.1891 75.8248 66.1891C77.3633 66.1891 78.6114 67.4364 78.6114 68.9757Z" fill="#000035"/>
<path d="M66.3607 67.2554C66.8824 65.8195 67.719 64.4909 68.7123 63.274C69.726 62.0724 70.9452 61.0236 72.3088 60.1787C72.6533 59.9748 72.9986 59.768 73.3416 59.5482L74.4162 58.9618C74.7897 58.7983 75.1722 58.65 75.5608 58.523C75.9578 58.4241 76.3624 58.3526 76.7678 58.3009C78.3969 58.1678 80.1042 58.4173 81.5204 59.3968L81.4876 59.6896C79.9407 60.3399 78.6349 60.7422 77.342 61.1909C77.0226 61.3111 76.7016 61.41 76.3738 61.483C76.0521 61.5788 75.7228 61.6526 75.3859 61.7126L74.3797 61.9423C74.0504 62.042 73.7226 62.1553 73.3941 62.2709C72.1118 62.7979 70.8737 63.4885 69.7276 64.341C68.5609 65.1776 67.5357 66.2211 66.6185 67.3976L66.3607 67.2554Z" fill="#000035"/>
<path d="M97.0184 68.9757C97.0184 70.515 98.2665 71.7623 99.805 71.7623C101.344 71.7623 102.592 70.5142 102.592 68.9757C102.592 67.4364 101.344 66.1891 99.805 66.1891C98.2665 66.1891 97.0184 67.4364 97.0184 68.9757Z" fill="#000035"/>
<path d="M109.011 67.3976C108.094 66.2218 107.069 65.1776 105.902 64.341C104.756 63.4885 103.518 62.7979 102.236 62.2709C101.907 62.1553 101.579 62.042 101.25 61.9423L100.244 61.7126C99.9069 61.6526 99.5776 61.5795 99.2559 61.483C98.9281 61.4092 98.6079 61.3103 98.2877 61.1909C96.9941 60.7422 95.689 60.3399 94.1421 59.6896L94.1094 59.3968C95.5255 58.4173 97.2321 58.1678 98.8619 58.3009C99.2673 58.3526 99.6719 58.4241 100.069 58.523C100.458 58.65 100.84 58.7983 101.213 58.9618L102.287 59.5482C102.63 59.768 102.976 59.9748 103.32 60.1787C104.684 61.0244 105.903 62.0724 106.917 63.274C107.91 64.4909 108.746 65.8203 109.268 67.2554L109.011 67.3976Z" fill="#000035"/>
<path d="M78.2631 88.2495C79.7552 89.6306 81.3843 90.8269 83.1426 91.7145C84.0233 92.1518 84.9299 92.5275 85.8729 92.7359C86.3376 92.8705 86.8152 92.9192 87.2875 92.9967C87.7636 93.0097 88.245 93.072 88.7074 93.0036C89.6444 92.9716 90.5692 92.6925 91.4476 92.3085C92.3435 91.9518 93.1672 91.411 93.9741 90.8482C95.5765 89.6915 97.0139 88.2723 98.3509 86.7399C97.3889 88.5385 96.0922 90.1774 94.5072 91.5266C92.939 92.8644 90.9806 93.9634 88.7827 94.1056C87.6967 94.1847 86.6258 94.0394 85.6044 93.7443C84.5823 93.4531 83.6103 93.0218 82.7266 92.4659C80.9447 91.3806 79.4137 89.9364 78.2631 88.2495Z" fill="#000035"/>
<path d="M71.8016 104.336C74.4247 105.903 77.2174 107.091 80.0808 107.939C82.9464 108.755 85.9224 109.216 88.8557 109.104C91.7731 108.983 94.6426 108.095 97.3228 106.801C99.9991 105.484 102.529 103.803 104.862 101.832C102.958 104.236 100.546 106.246 97.8597 107.812C95.1727 109.376 92.1055 110.413 88.9227 110.575C85.7612 110.671 82.6384 110.108 79.7203 109.032C76.8143 107.945 74.0695 106.405 71.8016 104.336Z" fill="#000035"/>
<path opacity="0.2" d="M110.958 80.9307C110.958 83.7051 107.993 85.9547 104.335 85.9547C100.678 85.9547 97.7128 83.7051 97.7128 80.9307C97.7128 78.1555 100.678 75.9066 104.335 75.9066C107.993 75.9066 110.958 78.1555 110.958 80.9307Z" fill="#EBA08C"/>
<path opacity="0.2" d="M78.8327 80.9307C78.8327 83.7051 75.8674 85.9547 72.21 85.9547C68.5526 85.9547 65.5873 83.7051 65.5873 80.9307C65.5873 78.1555 68.5526 75.9066 72.21 75.9066C75.8681 75.9066 78.8327 78.1555 78.8327 80.9307Z" fill="#EBA08C"/>
<path d="M55.5551 62.0309C58.442 64.7429 63.222 64.4418 65.8161 61.3844C67.4353 59.4763 68.1479 56.857 69.2773 54.5526C70.4067 52.2482 72.3377 50.0365 74.6915 50.156C76.5974 50.2525 78.2272 51.8633 80.1293 52.0246C82.6345 52.2375 84.8111 49.7742 85.4697 47.0727C86.1284 44.3713 88.1042 40.1352 87.6167 37.3889C85.2119 35.9553 79.3787 37.0847 76.7274 37.7966C66.6656 40.4987 58.6527 51.0267 55.5551 62.0309Z" fill="#000035"/>
<path d="M118.589 62.0309C115.702 64.7429 110.922 64.4418 108.328 61.3844C106.708 59.4763 105.996 56.857 104.866 54.5526C103.737 52.2482 101.806 50.0365 99.4521 50.156C97.5462 50.2525 95.9164 51.8633 94.0143 52.0246C91.5091 52.2375 89.3325 49.7742 88.6739 47.0727C88.0153 44.3713 87.1285 40.1352 87.616 37.3889C90.0208 35.9553 94.7657 37.0847 97.4169 37.7966C107.478 40.4987 115.491 51.0267 118.589 62.0309Z" fill="#000035"/>
<path d="M87.3498 67.1847C88.5492 68.1133 89.5789 69.267 90.4429 70.5356C91.3038 71.808 91.9853 73.2241 92.4058 74.7314C92.6051 75.4973 92.7473 76.2502 92.8485 77.0039C92.9618 77.7584 93.0508 78.5189 93.1055 79.2825C93.1991 80.8195 93.231 82.3307 92.9724 83.9171L92.9032 84.3423L92.4811 84.3301C91.1251 84.2921 89.7691 84.2396 88.413 84.1575C87.057 84.0799 85.701 83.9825 84.345 83.8312C85.701 83.6798 87.057 83.5825 88.413 83.5049C89.7691 83.4228 91.1251 83.3711 92.4811 83.3323L91.9898 83.7452C92.1298 82.3443 92.0849 80.8279 91.9739 79.3646C91.859 77.9029 91.6765 76.3863 91.3981 74.9824C91.0665 73.5739 90.5342 72.2011 89.8428 70.8953C89.1409 69.5979 88.3203 68.3437 87.3498 67.1847Z" fill="#000035"/>
<path d="M62.8204 124.944L87.8389 162.288L112.857 124.944" stroke="#000035" stroke-miterlimit="10"/>
<g opacity="0.38">
<path d="M82.0931 43.452C78.9879 42.4725 75.6324 42.6139 72.6245 43.6475C69.6212 44.6795 66.8787 46.5725 65.0884 49.1872C64.1773 50.4732 63.5491 51.9502 62.9057 53.4446C62.2532 54.9261 61.5641 56.4738 60.4317 57.7219C59.3282 58.9714 57.9577 59.973 56.4427 60.6271C54.9217 61.2606 53.2736 61.5937 51.6476 61.4941C54.8928 61.361 57.9973 59.8042 59.9845 57.3454C62.0129 54.8934 62.5498 51.5334 64.4656 48.7529C66.4072 46.0294 69.2858 44.046 72.4466 43.0938C74.0292 42.6215 75.6803 42.3865 77.3238 42.4283C78.9628 42.493 80.5972 42.8079 82.0931 43.452Z" fill="white"/>
<path d="M82.4581 35.0284C81.1872 34.1804 79.6593 33.8792 78.1748 33.937C76.6841 33.9743 75.2117 34.3127 73.8025 34.8017C70.9832 35.7706 68.3746 37.3639 66.3037 39.4972C64.1711 41.578 62.7246 44.2658 60.9898 46.7671C60.119 48.0182 59.1722 49.2343 58.0694 50.3021C56.9545 51.3478 55.6859 52.2665 54.2561 52.7921C55.6136 52.1084 56.7986 51.1524 57.804 50.0405C58.8284 48.9445 59.7015 47.7178 60.5023 46.4432C62.1162 43.9114 63.5787 41.1864 65.7637 38.9626C67.9601 36.7897 70.6706 35.128 73.6238 34.2473C75.0962 33.813 76.6294 33.5271 78.1755 33.5666C79.7072 33.6282 81.2861 34.0359 82.4581 35.0284Z" fill="white"/>
<path d="M90.6893 46.2595C91.624 45.0435 92.9496 44.1422 94.3946 43.5756C95.8549 43.0341 97.4459 42.8493 99.0088 43.0144C102.166 43.3787 104.965 45.3256 106.807 47.8422C107.738 49.1108 108.359 50.5885 108.86 52.0266C109.37 53.4663 109.879 54.8824 110.727 56.094C112.421 58.5254 115.27 60.1544 118.316 60.3879C116.784 60.4373 115.243 60.0578 113.842 59.3916C112.447 58.7049 111.211 57.685 110.254 56.4385C109.265 55.1897 108.75 53.6785 108.21 52.2654C107.687 50.8357 107.086 49.4773 106.191 48.2863C104.491 45.8663 101.868 44.0502 98.9312 43.5916C96.0146 43.1444 92.8143 44.0373 90.6893 46.2595Z" fill="white"/>
<path d="M90.8536 36.5576C92.0781 35.7065 93.4858 35.1202 94.9468 34.7513C96.4192 34.4243 97.9494 34.3429 99.4613 34.5003C100.974 34.6646 102.451 35.1316 103.817 35.8168C105.174 36.5271 106.396 37.4717 107.454 38.5631C109.542 40.7846 111.034 43.4411 112.313 46.1288C112.946 47.4757 113.562 48.8219 114.345 50.0676C115.104 51.3232 116.077 52.4686 117.335 53.2755C115.986 52.6177 114.913 51.486 114.035 50.2737C113.168 49.0409 112.484 47.7016 111.789 46.3897C110.414 43.775 108.95 41.1763 106.907 39.0894C105.912 38.0307 104.764 37.1181 103.496 36.4283C102.217 35.7506 100.817 35.3232 99.3837 35.0768C96.5067 34.638 93.4683 35.1255 90.8536 36.5576Z" fill="white"/>
<path d="M132.098 80.2123C134.087 81.5082 135.792 83.2407 137.136 85.2196C138.478 87.2114 139.318 89.5037 139.906 91.8126C140.5 94.1277 140.825 96.4861 141.313 98.7898C141.792 101.09 142.415 103.373 143.571 105.376C143.698 105.636 143.863 105.871 144.022 106.111C144.187 106.345 144.326 106.6 144.513 106.819C144.88 107.26 145.233 107.714 145.65 108.111C146.482 108.906 147.422 109.596 148.414 110.218C150.387 111.475 152.562 112.498 154.466 113.987C156.364 115.461 158.007 117.249 159.319 119.246C160.608 121.257 161.593 123.464 162.132 125.775C161.427 123.512 160.383 121.365 159.01 119.456C157.659 117.534 156.003 115.832 154.114 114.454C152.222 113.086 150.088 112.06 148.046 110.805C147.026 110.178 146.037 109.47 145.147 108.636C144.268 107.787 143.518 106.807 142.91 105.753C141.71 103.621 141.099 101.261 140.636 98.9289C140.176 96.5895 139.837 94.2479 139.34 91.9488C138.826 89.6581 138.074 87.4145 136.823 85.4204C135.608 83.4095 133.986 81.6466 132.098 80.2123Z" fill="white"/>
<path d="M118.8 90.7019C121.168 91.1514 123.131 92.8542 124.471 94.8225C125.814 96.8348 126.582 99.1407 127.319 101.391C128.755 105.905 130.445 110.334 132.491 114.595C132.992 115.652 133.551 116.664 134.368 117.438C135.181 118.225 136.192 118.817 137.221 119.395C139.309 120.537 141.338 121.889 143.078 123.537C144.84 125.163 146.394 127.011 147.69 129.017C148.972 131.033 150.005 133.203 150.717 135.471C149.843 133.263 148.751 131.148 147.38 129.225C146.039 127.286 144.461 125.513 142.688 123.972C140.914 122.422 138.977 121.105 136.885 120C135.844 119.427 134.774 118.823 133.866 117.963C132.943 117.103 132.325 115.998 131.807 114.922C129.799 110.597 128.086 106.135 126.763 101.563C126.095 99.2944 125.401 97.0188 124.16 95.0232C122.951 93.0398 121.117 91.3202 118.8 90.7019Z" fill="white"/>
<path d="M110.103 101.794C110.022 102.91 110.233 104.009 110.651 105.021C111.047 106.042 111.588 107.001 112.212 107.91C113.422 109.749 114.861 111.43 116.333 113.09C117.796 114.757 119.318 116.399 120.67 118.191C122.027 119.972 123.222 121.916 123.966 124.026C123.426 123.047 122.901 122.072 122.236 121.183C121.619 120.266 120.926 119.402 120.213 118.557C118.773 116.876 117.251 115.262 115.763 113.593C114.298 111.911 112.841 110.179 111.718 108.217C111.141 107.252 110.636 106.227 110.3 105.142C109.987 104.056 109.85 102.889 110.103 101.794Z" fill="white"/>
<path d="M42.0245 79.1555C41.0731 79.4605 40.1551 79.8491 39.2881 80.3282C38.4325 80.8287 37.6218 81.3991 36.8834 82.0524C35.4018 83.3536 34.1698 84.9257 33.2548 86.6619C32.3422 88.4013 31.7117 90.2669 31.4083 92.2146C31.0828 94.1593 30.971 96.1511 30.701 98.1482C30.4158 100.135 29.9389 102.162 28.9647 103.972C27.9973 105.771 26.7014 107.389 25.159 108.698C23.6296 110.022 21.9519 111.147 20.2103 112.137C18.4549 113.105 16.6601 113.984 14.8356 114.796C16.5833 113.83 18.3416 112.885 20.0194 111.816C21.7085 110.771 23.3239 109.606 24.7666 108.265C26.2055 106.924 27.4566 105.386 28.3494 103.654C29.2552 101.926 29.6857 99.9978 29.9481 98.0433C30.2355 96.0887 30.3709 94.0885 30.7269 92.0982C31.0699 90.1094 31.7186 88.1328 32.7445 86.3821C33.7545 84.6214 35.0756 83.0441 36.6453 81.7702C37.4393 81.1435 38.2995 80.6096 39.1946 80.1526C40.0981 79.7084 41.0518 79.3814 42.0245 79.1555Z" fill="white"/>
<path d="M51.4893 88.5344C47.228 90.5133 43.7745 94.0665 41.9606 98.3217C41.051 100.447 40.5939 102.74 40.3376 105.052C40.0813 107.37 40.0053 109.717 39.7779 112.071C39.5246 114.421 39.1063 116.788 38.2203 119.02C37.7762 120.131 37.2263 121.212 36.5137 122.186C35.8102 123.167 34.9363 124.02 33.9956 124.755C32.0988 126.216 29.9792 127.267 27.982 128.479C25.9834 129.662 24.0585 131.1 22.8759 133.158C23.9049 131.01 25.8351 129.459 27.7836 128.163C29.7594 126.879 31.8417 125.767 33.6305 124.298C34.515 123.557 35.3151 122.735 35.979 121.804C36.6452 120.874 37.1601 119.839 37.5761 118.769C38.4066 116.618 38.793 114.308 39.0219 111.995C39.2691 109.676 39.3687 107.324 39.6516 104.974C39.9452 102.634 40.4 100.255 41.4282 98.0874C42.4314 95.923 43.8322 93.9509 45.5488 92.3135C47.2797 90.6943 49.2913 89.3748 51.4893 88.5344Z" fill="white"/>
<path d="M61.7238 99.8235C60.8317 100.429 59.9905 101.094 59.2711 101.878C58.5296 102.637 57.8915 103.49 57.3637 104.399C56.2738 106.215 55.7848 108.267 55.4403 110.383C55.2456 111.438 55.0661 112.51 54.7832 113.569C54.4866 114.624 54.1276 115.664 53.6394 116.642C52.6978 118.612 51.4019 120.408 49.8124 121.869C50.4832 121.024 51.1273 120.167 51.662 119.242C52.2202 118.334 52.7077 117.386 53.1055 116.403C53.9375 114.442 54.3512 112.381 54.6927 110.249C54.8897 109.189 55.0943 108.114 55.4342 107.063C55.7841 106.015 56.251 105.002 56.8693 104.09C57.4831 103.177 58.1972 102.335 59.0148 101.61C59.8399 100.897 60.7465 100.281 61.7238 99.8235Z" fill="white"/>
</g>
</g>
</svg>
