<svg width="20" height="20" viewBox="0 0 20 20" fill="none" xmlns="http://www.w3.org/2000/svg">
<g clip-path="url(#clip0_1_314)">
<path d="M18.8962 20C19.5058 20 20 19.5057 20 18.8962V1.1038C20 0.494052 19.5057 0 18.8962 0H1.10393C0.494174 0 0.00012207 0.494127 0.00012207 1.1038V18.8961C0.00012207 19.5057 0.494174 19.9999 1.10393 19.9999L18.8962 20Z" fill="#485A96"/>
<path d="M11.491 20V10.8771H14.4393L14.8807 7.32167H11.4909V5.0517C11.4909 4.02233 11.7661 3.32087 13.1874 3.32087L15 3.31999V0.14008C14.6865 0.0968288 13.6104 0 12.3587 0C9.74513 0 7.95586 1.65686 7.95586 4.69969V7.32167H5V10.8771H7.95586V19.9999L11.491 20Z" fill="white"/>
</g>
<defs>
<clipPath id="clip0_1_314">
<rect width="20" height="20" fill="white"/>
</clipPath>
</defs>
</svg>
