<svg width="41" height="50" viewBox="0 0 41 50" fill="none" xmlns="http://www.w3.org/2000/svg">
<path d="M5.33313 50.0023C3.95813 50.0023 2.78105 49.5127 1.80188 48.5335C0.822713 47.5543 0.33313 46.3773 0.33313 45.0023V5.00226C0.33313 3.62726 0.822713 2.45018 1.80188 1.47101C2.78105 0.491842 3.95813 0.0022583 5.33313 0.0022583H25.5206C26.2706 0.0022583 26.979 0.158508 27.6456 0.471008C28.3123 0.783508 28.8748 1.23143 29.3331 1.81476L39.1456 13.6273C39.5206 14.0856 39.8123 14.5856 40.0206 15.1273C40.229 15.6689 40.3331 16.2314 40.3331 16.8148V45.0023C40.3331 46.1273 39.8227 46.8981 38.8019 47.3148C37.781 47.7314 36.8748 47.5439 36.0831 46.7523L25.3331 36.1273C24.6248 36.5856 23.854 36.9293 23.0206 37.1585C22.1873 37.3877 21.2915 37.5023 20.3331 37.5023C17.5831 37.5023 15.229 36.5231 13.2706 34.5648C11.3123 32.6064 10.3331 30.2523 10.3331 27.5023C10.3331 24.7523 11.3123 22.3981 13.2706 20.4398C15.229 18.4814 17.5831 17.5023 20.3331 17.5023C23.0831 17.5023 25.4373 18.4814 27.3956 20.4398C29.354 22.3981 30.3331 24.7523 30.3331 27.5023C30.3331 28.4606 30.2185 29.3564 29.9894 30.1898C29.7602 31.0231 29.4165 31.7939 28.9581 32.5023L35.3331 39.0023V16.7523L25.4581 5.00226H5.33313V45.0023H26.1456C26.979 45.0023 27.604 45.2627 28.0206 45.7835C28.4373 46.3043 28.6456 46.8773 28.6456 47.5023C28.6456 48.1273 28.4373 48.7002 28.0206 49.221C27.604 49.7418 26.979 50.0023 26.1456 50.0023H5.33313ZM20.3331 32.5023C21.7081 32.5023 22.8852 32.0127 23.8644 31.0335C24.8435 30.0543 25.3331 28.8773 25.3331 27.5023C25.3331 26.1273 24.8435 24.9502 23.8644 23.971C22.8852 22.9918 21.7081 22.5023 20.3331 22.5023C18.9581 22.5023 17.781 22.9918 16.8019 23.971C15.8227 24.9502 15.3331 26.1273 15.3331 27.5023C15.3331 28.8773 15.8227 30.0543 16.8019 31.0335C17.781 32.0127 18.9581 32.5023 20.3331 32.5023Z" fill="#333333"/>
</svg>
