<svg width="20" height="20" viewBox="0 0 20 20" fill="none" xmlns="http://www.w3.org/2000/svg">
<path d="M17.6562 0H2.34375C1.04933 0 0 1.04933 0 2.34375V17.6562C0 18.9507 1.04933 20 2.34375 20H17.6562C18.9507 20 20 18.9507 20 17.6562V2.34375C20 1.04933 18.9507 0 17.6562 0Z" fill="#333333"/>
<path d="M13.9025 3.90625H15.97L11.4532 9.06875L16.7669 16.0938H12.6063L9.34754 11.8331L5.61879 16.0938H3.55006L8.38129 10.5719L3.28381 3.90625H7.55004L10.4957 7.80062L13.9025 3.90625ZM13.1769 14.8563H14.3225L6.92754 5.07875H5.69817L13.1769 14.8563Z" fill="white"/>
</svg>
