<svg width="50" height="26" viewBox="0 0 50 26" fill="none" xmlns="http://www.w3.org/2000/svg">
<path d="M12.5002 25.4978C9.04191 25.4978 6.09399 24.2791 3.65649 21.8416C1.21899 19.4041 0.000244141 16.4561 0.000244141 12.9978C0.000244141 9.53947 1.21899 6.59155 3.65649 4.15405C6.09399 1.71655 9.04191 0.497803 12.5002 0.497803H20.0002C20.7086 0.497803 21.3023 0.737386 21.7815 1.21655C22.2607 1.69572 22.5002 2.28947 22.5002 2.9978C22.5002 3.70614 22.2607 4.29989 21.7815 4.77905C21.3023 5.25822 20.7086 5.4978 20.0002 5.4978H12.5002C10.4169 5.4978 8.64608 6.22697 7.18774 7.6853C5.72941 9.14364 5.00024 10.9145 5.00024 12.9978C5.00024 15.0811 5.72941 16.852 7.18774 18.3103C8.64608 19.7686 10.4169 20.4978 12.5002 20.4978H20.0002C20.7086 20.4978 21.3023 20.7374 21.7815 21.2166C22.2607 21.6957 22.5002 22.2895 22.5002 22.9978C22.5002 23.7061 22.2607 24.2999 21.7815 24.7791C21.3023 25.2582 20.7086 25.4978 20.0002 25.4978H12.5002ZM17.5002 15.4978C16.7919 15.4978 16.1982 15.2582 15.719 14.7791C15.2398 14.2999 15.0002 13.7061 15.0002 12.9978C15.0002 12.2895 15.2398 11.6957 15.719 11.2166C16.1982 10.7374 16.7919 10.4978 17.5002 10.4978H32.5002C33.2086 10.4978 33.8023 10.7374 34.2815 11.2166C34.7607 11.6957 35.0002 12.2895 35.0002 12.9978C35.0002 13.7061 34.7607 14.2999 34.2815 14.7791C33.8023 15.2582 33.2086 15.4978 32.5002 15.4978H17.5002ZM30.0002 25.4978C29.2919 25.4978 28.6982 25.2582 28.219 24.7791C27.7398 24.2999 27.5002 23.7061 27.5002 22.9978C27.5002 22.2895 27.7398 21.6957 28.219 21.2166C28.6982 20.7374 29.2919 20.4978 30.0002 20.4978H37.5002C39.5836 20.4978 41.3544 19.7686 42.8127 18.3103C44.2711 16.852 45.0002 15.0811 45.0002 12.9978C45.0002 10.9145 44.2711 9.14364 42.8127 7.6853C41.3544 6.22697 39.5836 5.4978 37.5002 5.4978H30.0002C29.2919 5.4978 28.6982 5.25822 28.219 4.77905C27.7398 4.29989 27.5002 3.70614 27.5002 2.9978C27.5002 2.28947 27.7398 1.69572 28.219 1.21655C28.6982 0.737386 29.2919 0.497803 30.0002 0.497803H37.5002C40.9586 0.497803 43.9065 1.71655 46.344 4.15405C48.7815 6.59155 50.0002 9.53947 50.0002 12.9978C50.0002 16.4561 48.7815 19.4041 46.344 21.8416C43.9065 24.2791 40.9586 25.4978 37.5002 25.4978H30.0002Z" fill="#333333"/>
</svg>
