<svg width="20" height="20" viewBox="0 0 20 20" fill="none" xmlns="http://www.w3.org/2000/svg">
<g clip-path="url(#clip0_1_331)">
<circle cx="10" cy="10" r="14" fill="white"/>
<path d="M9.99997 -6C1.16337 -6 -6 1.16339 -6 10C-6 18.8366 1.16337 26 9.99997 26C18.8366 26 26 18.8366 26 10C25.9999 1.16339 18.8364 -6 9.99997 -6ZM5.73115 17.7353H2.21819V6.38589H5.73115V17.7353ZM3.95793 4.8996C2.81063 4.8996 1.88055 3.96193 1.88055 2.80545C1.88055 1.64883 2.81076 0.711228 3.95793 0.711228C5.10509 0.711228 6.03518 1.64883 6.03518 2.80545C6.03524 3.962 5.10516 4.8996 3.95793 4.8996ZM18.8959 17.7353H15.4V11.7778C15.4 10.1438 14.7794 9.23173 13.4873 9.23173C12.0812 9.23173 11.3466 10.1817 11.3466 11.7778V17.7353H7.97728V6.38589H11.3466V7.91446C11.3466 7.91446 12.3601 6.0397 14.7666 6.0397C17.1732 6.0397 18.896 7.50915 18.896 10.549L18.8959 17.7353Z" fill="url(#paint0_linear_1_331)"/>
</g>
<defs>
<linearGradient id="paint0_linear_1_331" x1="-1.31372" y1="-1.31371" x2="21.3137" y2="21.3137" gradientUnits="userSpaceOnUse">
<stop stop-color="#2489BE"/>
<stop offset="1" stop-color="#0575B3"/>
</linearGradient>
<clipPath id="clip0_1_331">
<rect width="20" height="20" fill="white"/>
</clipPath>
</defs>
</svg>
