<svg width="54" height="51" viewBox="0 0 54 51" fill="none" xmlns="http://www.w3.org/2000/svg">
<path d="M1.04172 37.8769C0.500052 37.5019 0.177136 36.9915 0.072969 36.3457C-0.0311977 35.6998 0.0833856 35.0852 0.416719 34.5019L9.85422 19.3769C10.3126 18.6686 10.948 18.2832 11.7605 18.2207C12.573 18.1582 13.2709 18.4394 13.8542 19.0644L19.1667 25.2519L27.1042 12.3144C27.5626 11.5227 28.2605 11.1269 29.198 11.1269C30.1355 11.1269 30.8542 11.5019 31.3542 12.2519L33.9167 16.1269C34.375 16.8352 34.5105 17.5123 34.323 18.1582C34.1355 18.804 33.7709 19.2936 33.2292 19.6269C32.6876 19.9602 32.0938 20.0957 31.448 20.0332C30.8021 19.9707 30.2501 19.5852 29.7917 18.8769L29.3542 18.2519L21.6667 30.7519C21.2084 31.4602 20.5626 31.8561 19.7292 31.9394C18.8959 32.0227 18.1876 31.7311 17.6042 31.0644L12.2917 24.8769L4.66672 37.1894C4.29172 37.8144 3.73964 38.1998 3.01047 38.3457C2.2813 38.4915 1.62505 38.3352 1.04172 37.8769ZM36.8542 45.4394C33.7292 45.4394 31.073 44.3457 28.8855 42.1582C26.698 39.9707 25.6042 37.3144 25.6042 34.1894C25.6042 31.0644 26.698 28.4082 28.8855 26.2207C31.073 24.0332 33.7292 22.9394 36.8542 22.9394C39.9792 22.9394 42.6355 24.0332 44.823 26.2207C47.0105 28.4082 48.1042 31.0644 48.1042 34.1894C48.1042 35.2727 47.9584 36.3248 47.6667 37.3457C47.3751 38.3665 46.9375 39.3144 46.3542 40.1894L52.3542 46.1894C52.8542 46.6894 53.1146 47.2727 53.1355 47.9394C53.1563 48.6061 52.9167 49.1894 52.4167 49.6894C51.9167 50.1894 51.323 50.4394 50.6355 50.4394C49.948 50.4394 49.3542 50.1894 48.8542 49.6894L42.7917 43.6894C41.9584 44.2727 41.0313 44.7102 40.0105 45.0019C38.9896 45.2936 37.9376 45.4394 36.8542 45.4394ZM36.8542 40.4394C38.6042 40.4394 40.0834 39.8352 41.2917 38.6269C42.5 37.4186 43.1042 35.9394 43.1042 34.1894C43.1042 32.4394 42.5 30.9602 41.2917 29.7519C40.0834 28.5436 38.6042 27.9394 36.8542 27.9394C35.1042 27.9394 33.625 28.5436 32.4167 29.7519C31.2084 30.9602 30.6042 32.4394 30.6042 34.1894C30.6042 35.9394 31.2084 37.4186 32.4167 38.6269C33.625 39.8352 35.1042 40.4394 36.8542 40.4394ZM39.9167 19.7519C39.375 19.4186 39 18.9394 38.7917 18.3144C38.5834 17.6894 38.7084 17.0227 39.1667 16.3144L48.6667 1.25191C49.0417 0.668575 49.5834 0.293575 50.2917 0.126908C51.0001 -0.0397583 51.6459 0.106075 52.2292 0.564408C52.7709 0.939408 53.1042 1.44983 53.2292 2.09566C53.3542 2.74149 53.25 3.35608 52.9167 3.93941L43.3542 18.9394C42.8959 19.6477 42.3438 20.0436 41.698 20.1269C41.0521 20.2102 40.4584 20.0852 39.9167 19.7519Z" fill="#333333"/>
</svg>
