<svg width="49" height="47" viewBox="0 0 49 47" fill="none" xmlns="http://www.w3.org/2000/svg">
<path d="M22.5001 40.0023C19.8751 40.0023 17.4272 39.5439 15.1564 38.6273C12.8855 37.7106 10.8751 36.4606 9.12512 34.8773C8.62512 34.4189 8.39596 33.8668 8.43762 33.221C8.47929 32.5752 8.77096 32.0231 9.31262 31.5648C9.85429 31.1064 10.4793 30.8877 11.1876 30.9085C11.896 30.9293 12.521 31.1689 13.0626 31.6273C14.396 32.7106 15.8439 33.5439 17.4064 34.1273C18.9689 34.7106 20.6668 35.0023 22.5001 35.0023C26.6668 35.0023 30.2085 33.5439 33.1251 30.6273C36.0418 27.7106 37.5001 24.1689 37.5001 20.0023C37.5001 15.8356 36.0418 12.2939 33.1251 9.37726C30.2085 6.46059 26.6668 5.00226 22.5001 5.00226C19.0418 5.00226 15.9897 6.04392 13.3439 8.12726C10.698 10.2106 8.93762 12.8564 8.06262 16.0648C7.85429 16.7731 7.47929 17.3981 6.93762 17.9398C6.39596 18.4814 5.77096 18.7523 5.06262 18.7523C4.35429 18.7523 3.78137 18.471 3.34387 17.9085C2.90637 17.346 2.77096 16.7106 2.93762 16.0023C3.89596 11.4189 6.17721 7.60643 9.78137 4.56476C13.3855 1.52309 17.6251 0.0022583 22.5001 0.0022583C28.0835 0.0022583 32.8126 1.93976 36.6876 5.81476C40.5626 9.68976 42.5001 14.4189 42.5001 20.0023C42.5001 22.3356 42.1251 24.5335 41.3751 26.596C40.6251 28.6585 39.5835 30.5439 38.2501 32.2523L48.2501 42.2523C48.7085 42.7106 48.9376 43.2939 48.9376 44.0023C48.9376 44.7106 48.7085 45.2939 48.2501 45.7523C47.7918 46.2106 47.2085 46.4398 46.5001 46.4398C45.7918 46.4398 45.2085 46.2106 44.7501 45.7523L34.7501 35.7523C33.0418 37.0856 31.1564 38.1273 29.0939 38.8773C27.0314 39.6273 24.8335 40.0023 22.5001 40.0023ZM21.6876 23.3773L24.0001 16.1898C24.1251 15.8564 24.323 15.5752 24.5939 15.346C24.8647 15.1168 25.1876 15.0023 25.5626 15.0023H27.0626C27.396 15.0023 27.6876 15.0856 27.9376 15.2523C28.1876 15.4189 28.396 15.6481 28.5626 15.9398L31.8751 22.5023C32.4168 22.5023 32.8647 22.6793 33.2189 23.0335C33.573 23.3877 33.7501 23.8356 33.7501 24.3773C33.7501 24.9189 33.573 25.3668 33.2189 25.721C32.8647 26.0752 32.4168 26.2523 31.8751 26.2523H30.7501C30.4168 26.2523 30.0939 26.1585 29.7814 25.971C29.4689 25.7835 29.2293 25.5231 29.0626 25.1898L26.6251 20.3773L23.8751 28.8148C23.7501 29.1898 23.5418 29.4814 23.2501 29.6898C22.9585 29.8981 22.6251 30.0023 22.2501 30.0023H21.1251C20.7501 30.0023 20.4064 29.8877 20.0939 29.6585C19.7814 29.4293 19.5626 29.1273 19.4376 28.7523L15.8751 17.0023L13.0626 25.0023C12.9376 25.3773 12.7189 25.6793 12.4064 25.9085C12.0939 26.1377 11.7293 26.2523 11.3126 26.2523H1.87512C1.33346 26.2523 0.885539 26.0752 0.531372 25.721C0.177205 25.3668 0.00012207 24.9189 0.00012207 24.3773C0.00012207 23.8356 0.177205 23.3877 0.531372 23.0335C0.885539 22.6793 1.33346 22.5023 1.87512 22.5023H10.0001L13.6876 11.8148C13.8126 11.4398 14.0314 11.1481 14.3439 10.9398C14.6564 10.7314 15.0001 10.6273 15.3751 10.6273H16.5626C16.9793 10.6273 17.3335 10.7523 17.6251 11.0023C17.9168 11.2523 18.1251 11.5648 18.2501 11.9398L21.6876 23.3773Z" fill="#333333"/>
</svg>
