<svg width="16" height="12" viewBox="0 0 16 12" fill="none" xmlns="http://www.w3.org/2000/svg">
<g clip-path="url(#clip0_1_326)">
<path d="M10.658 5.82522C9.19098 4.98812 6.35046 3.41504 6.35046 3.41504L10.1376 6.13299C10.1376 6.13299 9.44775 6.54156 10.658 5.82522Z" fill="#E8E0E0"/>
<path d="M6.7888 11.4875L6.79003 11.4875C9.02605 11.5239 11.001 11.4854 13.3264 11.3076L13.3505 11.3057L13.3743 11.3016C13.8449 11.2195 14.2786 10.9936 14.6178 10.6555L14.6179 10.6555L14.6212 10.6521C14.8485 10.4213 14.9801 10.2035 15.1143 9.85944C15.3335 9.30793 15.401 8.7799 15.4826 7.51022L15.4828 7.50643C15.5057 7.10244 15.5057 4.89652 15.4828 4.49253L15.4829 4.49253L15.4826 4.48827C15.4776 4.41216 15.4731 4.33162 15.4684 4.24731C15.4263 3.49698 15.3676 2.44885 14.8263 1.58295L14.8154 1.56544L14.803 1.54888C14.4805 1.1168 13.9553 0.803787 13.4048 0.698611C13.0835 0.636751 12.3173 0.589113 11.3751 0.555431C10.4125 0.521016 9.21738 0.5 8.00518 0.5C6.79026 0.5 5.5951 0.521015 4.63311 0.555431C3.69171 0.589111 2.92697 0.636743 2.60586 0.69861C2.15819 0.783934 1.76066 0.991215 1.42586 1.30408L1.42586 1.30408L1.42425 1.30559C1.03828 1.66948 0.853721 2.14228 0.750741 2.582C0.667849 2.93595 0.628812 3.31527 0.595411 3.63983C0.58802 3.71165 0.580904 3.78079 0.573651 3.84638L0.572654 3.85539L0.571985 3.86443C0.465918 5.29727 0.486837 6.57667 0.571365 8.12462L0.571199 8.12463L0.572233 8.13749C0.627289 8.82136 0.66852 9.14414 0.7824 9.53121C0.908451 9.97097 1.08656 10.3489 1.35382 10.622C1.67331 10.9534 2.09613 11.1694 2.55987 11.265C3.1775 11.3943 4.14737 11.4381 6.7888 11.4875ZM9.27908 5.85404C8.97437 6.01477 8.65251 6.18096 8.31906 6.35305L8.29683 6.36452C7.8961 6.57133 7.48001 6.78606 7.06232 7.00764V4.67244C7.16168 4.72524 7.26094 4.77796 7.36014 4.83066C7.9982 5.16961 8.6338 5.50725 9.27908 5.85404Z" fill="#CD201F" stroke="white"/>
<path d="M11.1923 6.00851C9.37858 4.9636 7.64191 4.00297 5.8667 3V9C7.73476 7.90524 9.70375 6.90267 11.2 6.00851H11.1923Z" fill="white"/>
</g>
<defs>
<clipPath id="clip0_1_326">
<rect width="16" height="12" fill="white"/>
</clipPath>
</defs>
</svg>
